<?xml version="1.0" encoding="utf-8"?>
<svg id="master-artboard" viewBox="0 0 1400 1400" version="1.1" xmlns="http://www.w3.org/2000/svg" x="0px" y="0px" width="1400px" height="1400px" enable-background="new 0 0 1400 1400">
<path d="M 0 0 H 1400 V 1400 H 0 V 0 Z" fill-rule="evenodd" clip-rule="evenodd" fill="#A14ABF" style="fill-opacity: 0;"/>
<g>
	<path d="M 864.5 1173.9000244140625 L 862.5999755859375 1177 L 889.7999877929688 1194.9000244140625 Z" fill-rule="evenodd" clip-rule="evenodd" fill="#00CCFF"/>
	<path d="M 897.7999877929688 1151 L 896.5999755859375 1160 L 900.9000244140625 1155.0999755859375 Z" fill-rule="evenodd" clip-rule="evenodd" fill="#00CCFF"/>
	<path d="M 1027.5 1159.4000244140625 L 1018.2000122070312 1153.800048828125 L 1022.5 1152.5999755859375 Z" fill-rule="evenodd" clip-rule="evenodd" fill="#FFFFFF"/>
	<path d="M 1160.800048828125 1294.5999755859375 L 1050.300048828125 1210.5999755859375 L 1068.199951171875 1221.0999755859375 Z" fill-rule="evenodd" clip-rule="evenodd" fill="#FFFFFF"/>
	<path d="M 976.7999877929688 1091.5 L 971.2999877929688 1100.699951171875 L 983 1109.4000244140625 L 986.7000122070312 1101.300048828125 Z" fill-rule="evenodd" clip-rule="evenodd" fill="#00CCFF"/>
	<path d="M 1001.7999877929688 1091.199951171875 L 1007.7000122070312 1082.199951171875 L 1008.2999877929688 1085 Z" fill-rule="evenodd" clip-rule="evenodd" fill="#FFFFFF"/>
	<path d="M 723.7000122070312 1116.5 L 721.2000122070312 1120.800048828125 L 727.4000244140625 1122.699951171875 Z" fill-rule="evenodd" clip-rule="evenodd" fill="#00CCFF"/>
	<path d="M 1089.699951171875 1114.199951171875 L 1012.7000122070312 1060.5 L 1038.9000244140625 1072.5 Z" fill-rule="evenodd" clip-rule="evenodd" fill="#FFFFFF"/>
</g>
<g>
	<g>
		<path d="M 714.2999877929688 147.60000610351562 L 665.5 185.89999389648438 L 650.0999755859375 215.5 L 606.7999877929688 241.5 L 748.7999877929688 255.6999969482422 L 755 213 L 786.5 234 L 793.9000244140625 210 L 777.7999877929688 180.89999389648438 Z" fill-rule="evenodd" clip-rule="evenodd" fill="#1A1A1A"/>
		<path d="M 782.5999755859375 231.5 L 773.7999877929688 268.29998779296875 L 763 273.6000061035156 L 762.0999755859375 300.70001220703125 L 740.7999877929688 293.29998779296875 L 691.4000244140625 336.79998779296875 L 670.0999755859375 312.20001220703125 L 646.2999877929688 318.29998779296875 L 655.5999755859375 262.70001220703125 L 638 229.39999389648438 L 658.7000122070312 211.8000030517578 L 675.4000244140625 170.1999969482422 L 723.5 177.1999969482422 Z" fill-rule="evenodd" clip-rule="evenodd" fill="#996633"/>
		<path d="M 749.0999755859375 286.5 L 744.7999877929688 302.8999938964844 L 725.4000244140625 309.70001220703125 L 725.7000122070312 324.20001220703125 L 714.5999755859375 326.70001220703125 L 708.0999755859375 339 L 691.4000244140625 336.79998779296875 L 670.0999755859375 312.20001220703125 L 661.2000122070312 281 L 745.0999755859375 284.70001220703125 L 758.7000122070312 251.6999969482422 L 785.2999877929688 277 L 755.2999877929688 278.5 Z" opacity="0.5" fill-rule="evenodd" clip-rule="evenodd" fill="#3F2016"/>
		<path d="M 683.4000244140625 315.79998779296875 L 714.9000244140625 245.5 L 701 232.8000030517578 L 657.7999877929688 246.60000610351562 L 639.9000244140625 216.1999969482422 L 663 217.6999969482422 L 663.5999755859375 178.1999969482422 L 709.9000244140625 161.1999969482422 L 747.5999755859375 213 L 740.5 246.39999389648438 L 721.0999755859375 248.3000030517578 L 705.2999877929688 335 L 676.5999755859375 331.8999938964844 L 674.5 289 Z" opacity="0.5" fill-rule="evenodd" clip-rule="evenodd" fill="#3F2016"/>
	</g>
	<g>
		<path d="M 467.3999938964844 213.3000030517578 L 440.5 191.10000610351562 L 461.79998779296875 214.89999389648438 L 451.8999938964844 207.8000030517578 L 395.1000061035156 205.3000030517578 L 375.29998779296875 197 L 379 199.8000030517578 L 372.8999938964844 198.1999969482422 L 301.8999938964844 224.8000030517578 L 278.3999938964844 222 L 246 227.60000610351562 L 242.3000030517578 255 L 248.8000030517578 256.8999938964844 L 254.3000030517578 247 L 282.70001220703125 256 L 291.3999938964844 235.60000610351562 L 350.6000061035156 239.60000610351562 L 375 224.5 L 457.20001220703125 244 L 453.3999938964844 233.5 Z" fill-rule="evenodd" clip-rule="evenodd" fill="#996633"/>
		<path opacity="0.5" fill-rule="evenodd" clip-rule="evenodd" fill="#3F2016" d="M335.2,244.2l27.2-16.3l17.3,3.7l15.8-7.4&#10;&#9;&#9;&#9;l59.9,14.6l7.4,20.8l-12.3,9.1l-26.8-11.4l6.8,6.2l-50.6-15.4c-1.6,0,1.8,0-1.5,0l-24.7,4l-41.7-3.1l-3.4,15.4l-13.9,4.3&#10;&#9;&#9;&#9;l-22.5-5.6l-9.9,4.3l-4.6-3.4l11.1-12.5l-29.3-40.3l33.7,38.9l44.8-19.8l-11.1-14.5L335.2,244.2z"/>
		<path d="M 421.29998779296875 213.39999389648438 L 387.3999938964844 208.39999389648438 L 373.79998779296875 203.5 L 295.70001220703125 227.89999389648438 L 252.5 201.60000610351562 L 298 224.39999389648438 L 321.6000061035156 214 L 301.6000061035156 195.8000030517578 L 324.3999938964844 211.1999969482422 L 361.1000061035156 196.6999969482422 L 341.70001220703125 185 L 388.8999938964844 206.60000610351562 Z" fill-rule="evenodd" clip-rule="evenodd" fill="#FFFFCC"/>
		<path d="M 242.3000030517578 255 L 246 227.60000610351562 L 305 254.3000030517578 L 321.29998779296875 254 L 311.3999938964844 262.6000061035156 L 335.79998779296875 281.8999938964844 L 290.8999938964844 265.1000061035156 L 288.70001220703125 256.1000061035156 L 248.89999389648438 250.10000610351562 Z" opacity="0.5" fill-rule="evenodd" clip-rule="evenodd" fill="#3F2016"/>
	</g>
	<g>
		<path d="M 606.5 384.70001220703125 L 610.9000244140625 396.3999938964844 L 613.9000244140625 413.1000061035156 L 628.0999755859375 426.70001220703125 L 640 430.20001220703125 L 691.5999755859375 450.8999938964844 L 809.5 453.1000061035156 L 830.7999877929688 464.79998779296875 L 850.5 454.8999938964844 L 875.2000122070312 461.1000061035156 L 892.7999877929688 441 L 901.2000122070312 418.79998779296875 L 870 401.5 L 844.7000122070312 441.6000061035156 L 806.0999755859375 445.70001220703125 L 705.5 421.29998779296875 L 648.7000122070312 425 L 624.9000244140625 408.6000061035156 L 636 383.8999938964844 L 659.5 377.1000061035156 L 630 352 Z" opacity="0.5" fill-rule="evenodd" clip-rule="evenodd" fill="#3F2016"/>
		<path d="M 630 352 L 649.2999877929688 374.70001220703125 L 641.9000244140625 377.79998779296875 L 656.4000244140625 389.79998779296875 L 628.9000244140625 377.3999938964844 L 621.5 393.79998779296875 L 665.2999877929688 429.29998779296875 L 710.4000244140625 427.5 L 672.0999755859375 412 L 759.2000122070312 440.3999938964844 L 780.2000122070312 434.79998779296875 L 755.7999877929688 425.8999938964844 L 816.9000244140625 442.29998779296875 L 847.5999755859375 437 L 859 419 L 907.2999877929688 435.5 L 853.9000244140625 413.6000061035156 L 862 414.1000061035156 L 870 401.5 L 845 387.8999938964844 L 863.7999877929688 400 L 858.5 402.1000061035156 L 849 397.20001220703125 L 856.7000122070312 402.70001220703125 L 828.2999877929688 418.79998779296875 L 811.2999877929688 418.20001220703125 L 722.7999877929688 395.6000061035156 L 674 373.3999938964844 L 674 363.70001220703125 L 667.7000122070312 360 Z" fill-rule="evenodd" clip-rule="evenodd" fill="#996633"/>
		<path d="M 700.2000122070312 385.3999938964844 L 726.7999877929688 401.5 L 816.9000244140625 425 L 873.7000122070312 449 L 822.7000122070312 425.29998779296875 L 834.7999877929688 420.8999938964844 L 851.2000122070312 405.8999938964844 L 828.2999877929688 418.79998779296875 L 757.9000244140625 392.20001220703125 L 817.5 418.3999938964844 L 811.2999877929688 418.20001220703125 L 722.7999877929688 395.6000061035156 Z" fill-rule="evenodd" clip-rule="evenodd" fill="#FFFFCC"/>
	</g>
	<g>
		<path d="M 669.7999877929688 294.5 L 651.5999755859375 266.1000061035156 L 646.5 245.39999389648438 L 629.0999755859375 221.39999389648438 L 612.0999755859375 223.89999389648438 L 589.9000244140625 215.8000030517578 L 534 216.1999969482422 L 476.29998779296875 200.39999389648438 L 453.3999938964844 233.5 L 467 272 L 434.29998779296875 245.5 L 462.1000061035156 275.1000061035156 L 460.79998779296875 287.79998779296875 L 474.70001220703125 303.20001220703125 L 462.3999938964844 293.29998779296875 L 460.20001220703125 312.20001220703125 L 443.8999938964844 329.3999938964844 L 388 287.5 L 461.3999938964844 351.3999938964844 L 421.29998779296875 332.6000061035156 L 454.1000061035156 366.20001220703125 L 438.6000061035156 356.8999938964844 L 417.6000061035156 414.29998779296875 L 407.70001220703125 424.20001220703125 L 414.5 437.79998779296875 L 384.29998779296875 501.3999938964844 L 397.8999938964844 524.7999877929688 L 351.6000061035156 488.3999938964844 L 394.79998779296875 530.4000244140625 L 380 522.4000244140625 L 387.3999938964844 531.5999755859375 L 384.8999938964844 547 L 402.20001220703125 554.5 L 402.79998779296875 539.5999755859375 L 503.3999938964844 492.1000061035156 L 599.0999755859375 501.3999938964844 L 536.7999877929688 450.70001220703125 L 630 518.7000122070312 L 587.4000244140625 476.1000061035156 L 607.0999755859375 489 L 610.2000122070312 462.5 L 636.2000122070312 463.1000061035156 L 628.0999755859375 426.70001220703125 L 613.9000244140625 413.1000061035156 L 610.9000244140625 396.3999938964844 L 606.5 384.70001220703125 L 630 352 L 667.7000122070312 360 L 709.5999755859375 384.70001220703125 L 647.9000244140625 335.29998779296875 L 675.7000122070312 353.20001220703125 L 670.0999755859375 312.20001220703125 Z" fill-rule="evenodd" clip-rule="evenodd" fill="#FFFFFF"/>
		<path d="M 630.9000244140625 503.79998779296875 L 583.0999755859375 452.8999938964844 L 597.5999755859375 473 L 578.0999755859375 456 L 540.2000122070312 483.5 L 570.4000244140625 492.1000061035156 L 500.70001220703125 484.70001220703125 L 414.5 516.5 L 497.29998779296875 481 L 508.3999938964844 460.29998779296875 L 472.29998779296875 471.3999938964844 L 517.5999755859375 452.29998779296875 L 527.7999877929688 453.79998779296875 L 537.7000122070312 443 L 501.8999938964844 433.5 L 417.6000061035156 456.29998779296875 L 501.6000061035156 425.70001220703125 L 563 445.20001220703125 L 506.79998779296875 414.8999938964844 L 469.20001220703125 423.6000061035156 L 527.2000122070312 404.1000061035156 L 545.4000244140625 411.29998779296875 L 529.4000244140625 389.29998779296875 L 475.1000061035156 389.6000061035156 L 434.29998779296875 409.1000061035156 L 497.29998779296875 373.8999938964844 L 594.2000122070312 379.70001220703125 L 638 447.29998779296875 L 619.7999877929688 444.8999938964844 L 614.9000244140625 473.6000061035156 Z" opacity="0.5" fill-rule="evenodd" clip-rule="evenodd" fill="#FF6666"/>
		<path d="M 592.2999877929688 439.29998779296875 L 519.5 346.70001220703125 L 553.5 351 L 539.9000244140625 319.6000061035156 L 564.5 365.8999938964844 L 583.7000122070312 368.8999938964844 L 575 343 L 591.7000122070312 266.5 L 588.5999755859375 348.6000061035156 L 602.2000122070312 377 L 611.5 435.6000061035156 Z" opacity="0.5" fill-rule="evenodd" clip-rule="evenodd" fill="#FF6666"/>
		<path d="M 562.0999755859375 211.5 L 497.8999938964844 224.1999969482422 L 478.1000061035156 237.39999389648438 L 600.7000122070312 228.1999969482422 Z" opacity="0.5" fill-rule="evenodd" clip-rule="evenodd" fill="#FF6666"/>
		<path d="M 532.7999877929688 207.8000030517578 L 598.2000122070312 190.89999389648438 L 599.7999877929688 183.10000610351562 Z" fill-rule="evenodd" clip-rule="evenodd" fill="#FFFFFF"/>
		<path d="M 379.20001220703125 583.2999877929688 L 296.5 542 L 366.20001220703125 564.2000122070312 Z" fill-rule="evenodd" clip-rule="evenodd" fill="#FFFFFF"/>
		<path d="M 608.4000244140625 345.5 L 634.2999877929688 377.29998779296875 L 632.7999877929688 361.20001220703125 Z" opacity="0.5" fill-rule="evenodd" clip-rule="evenodd" fill="#FF6666"/>
	</g>
	<g>
		<path d="M 508.5 806.7999877929688 L 526.4000244140625 826.5999755859375 L 547.0999755859375 857.4000244140625 L 550.2000122070312 875.4000244140625 L 569.2999877929688 888.9000244140625 L 592.7999877929688 937.7000122070312 L 627.4000244140625 956.7999877929688 L 584.0999755859375 941.4000244140625 L 633.5 963 L 613.7999877929688 958.0999755859375 L 667.5 1011.0999755859375 L 718.7000122070312 1042.699951171875 L 726.7000122070312 1063.5999755859375 L 731.0999755859375 1039.5999755859375 L 753.9000244140625 1026 L 703.9000244140625 995.7000122070312 L 773 1020.4000244140625 L 726.0999755859375 998.2000122070312 L 665.5999755859375 906.2000122070312 L 618.0999755859375 882.0999755859375 L 715.5999755859375 917.9000244140625 L 655.0999755859375 890.7999877929688 L 641 870.4000244140625 L 629.7999877929688 862.4000244140625 L 628.5999755859375 832.7000122070312 L 615 819.7999877929688 L 603.5999755859375 785.2000122070312 L 540.5999755859375 767.9000244140625 Z" fill-rule="evenodd" clip-rule="evenodd" fill="#4D4D4D"/>
		<path d="M 546 769.4000244140625 L 582.2999877929688 807.4000244140625 L 562.5 806.7999877929688 L 656.4000244140625 865.4000244140625 L 622.4000244140625 837.0999755859375 L 622.4000244140625 813 L 592.7000122070312 782.2000122070312 Z" opacity="0.5" fill-rule="evenodd" clip-rule="evenodd" fill="#070707"/>
		<path d="M 670.5999755859375 885.7999877929688 L 584.0999755859375 828.4000244140625 L 595.9000244140625 842 L 570.5999755859375 843.2000122070312 L 532.9000244140625 862.4000244140625 L 580.4000244140625 885.2000122070312 L 593.4000244140625 880.2999877929688 L 640.7999877929688 915.7999877929688 L 618.0999755859375 906.7999877929688 L 581.7000122070312 934 L 620.5999755859375 974.7000122070312 L 645.2999877929688 940.2000122070312 L 702.7000122070312 977.7999877929688 L 663.7999877929688 963 L 742.2000122070312 998.2000122070312 L 625.5 869.2000122070312 Z" opacity="0.5" fill-rule="evenodd" clip-rule="evenodd" fill="#070707"/>
	</g>
	<g>
		<path d="M 773 1020.4000244140625 L 670.5999755859375 993.9000244140625 L 686 1008.0999755859375 Z" fill-rule="evenodd" clip-rule="evenodd" fill="#FFFFFF"/>
		<path d="M 718.7000122070312 1027.199951171875 L 637.7999877929688 1017.2999877929688 L 666.9000244140625 1031.5 Z" fill-rule="evenodd" clip-rule="evenodd" fill="#FFFFFF"/>
		<path d="M 726.7000122070312 1063.5999755859375 L 738.5 1088.300048828125 L 776.2000122070312 1105 L 799.5999755859375 1134.5999755859375 L 863.7999877929688 1146.4000244140625 L 878.5999755859375 1139.5999755859375 L 852.0999755859375 1087.699951171875 L 805.2000122070312 1068 L 778 1037.0999755859375 L 753.9000244140625 1026 L 731.0999755859375 1039.5999755859375 Z" fill-rule="evenodd" clip-rule="evenodd" fill="#00CCFF"/>
		<path d="M 766.2999877929688 1109.300048828125 L 749.2999877929688 1060.199951171875 L 756.7000122070312 1051.5999755859375 L 812.2000122070312 1064.5999755859375 L 866 1107.5 L 876.5 1144.800048828125 L 828.9000244140625 1142.5999755859375 Z" fill-rule="evenodd" clip-rule="evenodd" fill="#336699"/>
		<path d="M 782 1089.9000244140625 L 765.9000244140625 1085.199951171875 L 778 1095.699951171875 L 785.7000122070312 1097.300048828125 L 788.7999877929688 1094.199951171875 Z" fill-rule="evenodd" clip-rule="evenodd" fill="#FF6666"/>
		<path d="M 806.4000244140625 1090.5 L 787.5999755859375 1071.300048828125 L 804.5 1076 Z" fill-rule="evenodd" clip-rule="evenodd" fill="#FF6666"/>
		<path d="M 817.7999877929688 1121.5999755859375 L 810.4000244140625 1125 L 819.2999877929688 1132.800048828125 L 826.0999755859375 1134 Z" fill-rule="evenodd" clip-rule="evenodd" fill="#FF6666"/>
		<path d="M 844.7000122070312 1122.9000244140625 L 841 1128.800048828125 L 844.7000122070312 1129.699951171875 L 849 1127.199951171875 Z" fill-rule="evenodd" clip-rule="evenodd" fill="#FF6666"/>
		<path d="M 844.0999755859375 1104.4000244140625 L 844.0999755859375 1115.5 L 849 1104.4000244140625 Z" fill-rule="evenodd" clip-rule="evenodd" fill="#FF6666"/>
		<path d="M 863.2000122070312 1132.5 L 858.5 1138.300048828125 L 865.7000122070312 1134.9000244140625 Z" fill-rule="evenodd" clip-rule="evenodd" fill="#FF6666"/>
	</g>
	<g>
		<path d="M 628.2999877929688 740.0999755859375 L 671.7999877929688 757.0999755859375 L 694.5999755859375 776.9000244140625 L 680.4000244140625 776.9000244140625 L 716.9000244140625 784.9000244140625 L 699 786.0999755859375 L 747.7000122070312 811.4000244140625 L 795.9000244140625 881.7999877929688 L 884.7999877929688 945.4000244140625 L 863.2000122070312 939.2000122070312 L 887.2999877929688 965.2000122070312 L 898.4000244140625 985.5 L 946.5 962.0999755859375 L 931.0999755859375 947.9000244140625 L 889.0999755859375 921.9000244140625 L 950.7999877929688 951.5999755859375 L 916.2999877929688 927.5 L 843.4000244140625 807.7000122070312 L 870.5999755859375 818.2000122070312 L 802.0999755859375 786.7000122070312 L 834.7999877929688 798.5 L 807 767 L 784.2000122070312 757.0999755859375 L 741.9000244140625 700 L 736.2999877929688 690.7999877929688 L 710.4000244140625 681.5 L 622.7000122070312 718.5 Z" fill-rule="evenodd" clip-rule="evenodd" fill="#4D4D4D"/>
		<path d="M 673 697.2999877929688 L 734.2000122070312 739.2000122070312 L 700.7999877929688 734.9000244140625 L 770.5999755859375 756.5 L 757.5999755859375 743.5 L 818.0999755859375 754.5999755859375 L 756.4000244140625 734.9000244140625 L 725.5 697.7999877929688 L 741.9000244140625 700 L 736.2999877929688 690.7999877929688 L 710.4000244140625 681.5 Z" opacity="0.5" fill-rule="evenodd" clip-rule="evenodd" fill="#070707"/>
		<path d="M 728 759 L 711.9000244140625 773.7999877929688 L 648.2999877929688 768.2000122070312 L 709.5 798.5 L 735.4000244140625 797.2000122070312 L 749.5999755859375 773.7999877929688 L 792.2000122070312 775.5999755859375 L 845.9000244140625 794.2000122070312 L 786 767 Z" opacity="0.5" fill-rule="evenodd" clip-rule="evenodd" fill="#070707"/>
		<path d="M 817.5 810.7999877929688 L 792.7999877929688 831.2000122070312 L 753.2999877929688 843.5 L 819.2999877929688 874.4000244140625 L 797.0999755859375 870.0999755859375 L 843.4000244140625 888.5999755859375 L 825.5 875 L 844.0999755859375 858.2999877929688 L 883.5999755859375 889.2000122070312 L 902.7000122070312 917.5999755859375 L 853.2999877929688 834.2999877929688 L 888.5 849.0999755859375 L 827.4000244140625 806.5 Z" opacity="0.5" fill-rule="evenodd" clip-rule="evenodd" fill="#070707"/>
	</g>
	<g>
		<path d="M 898.4000244140625 985.5 L 910.7000122070312 997.5999755859375 L 916.5999755859375 1031.5 L 930.7999877929688 1044.800048828125 L 975.2000122070312 1034.300048828125 L 1011 1045.0999755859375 L 1047.800048828125 1011.7999877929688 L 1037.300048828125 1002.2000122070312 L 968.0999755859375 981.2000122070312 L 946.5 962.0999755859375 Z" fill-rule="evenodd" clip-rule="evenodd" fill="#00CCFF"/>
		<path d="M 903.9000244140625 971.5999755859375 L 857 960.5 L 898.7000122070312 975.2999877929688 Z" fill-rule="evenodd" clip-rule="evenodd" fill="#FFFFFF"/>
		<path d="M 912 1039.5 L 958.2999877929688 1008.0999755859375 L 1049 1004 L 1028.300048828125 1035.9000244140625 L 966.5999755859375 1040.800048828125 Z" fill-rule="evenodd" clip-rule="evenodd" fill="#336699"/>
		<path d="M 966.9000244140625 1027.199951171875 L 953.5999755859375 1024.0999755859375 L 980.5 1022.4000244140625 Z" fill-rule="evenodd" clip-rule="evenodd" fill="#FF6666"/>
		<path d="M 1011 1019.2000122070312 L 996.7999877929688 1025.699951171875 L 1017.5 1020.0999755859375 Z" fill-rule="evenodd" clip-rule="evenodd" fill="#FF6666"/>
		<path d="M 1003.5999755859375 1030 L 995.2999877929688 1034.300048828125 L 1008.5999755859375 1031.800048828125 Z" fill-rule="evenodd" clip-rule="evenodd" fill="#FF6666"/>
		<path d="M 1032 1019.2000122070312 L 1022.7999877929688 1023.5 L 1031.699951171875 1021.2999877929688 Z" fill-rule="evenodd" clip-rule="evenodd" fill="#FF6666"/>
		<path d="M 979.9000244140625 976.2999877929688 L 992.7999877929688 998.5 L 1002.0999755859375 999.0999755859375 L 987.2999877929688 982.5 L 1015.7000122070312 991.0999755859375 Z" fill-rule="evenodd" clip-rule="evenodd" fill="#FFFFFF"/>
		<path d="M 1043.199951171875 977.5 L 1050 986.5 L 1054.300048828125 980.7000122070312 Z" fill-rule="evenodd" clip-rule="evenodd" fill="#00CCFF"/>
	</g>
	<g>
		<path d="M 402.20001220703125 554.5 L 394.8999938964844 595.7000122070312 L 402.29998779296875 647.5 L 364.1000061035156 624.7000122070312 L 446.20001220703125 693.7999877929688 L 411 671.5999755859375 L 427.6000061035156 715.4000244140625 L 467.79998779296875 767.9000244140625 L 465.8999938964844 787 L 482.6000061035156 795.7000122070312 L 478.8999938964844 827.2000122070312 L 526.4000244140625 826.5999755859375 L 508.5 806.7999877929688 L 540.5999755859375 767.9000244140625 L 603.5999755859375 785.2000122070312 L 605.4000244140625 769.7999877929688 L 598 753.7000122070312 L 591.7999877929688 727.7999877929688 L 602.2999877929688 738.2999877929688 L 628.2999877929688 740.0999755859375 L 622.7000122070312 718.5 L 710.4000244140625 681.5 L 736.2999877929688 690.7999877929688 L 741.9000244140625 700 L 788.7999877929688 706.7999877929688 L 749.9000244140625 696.2999877929688 L 811.5999755859375 704.9000244140625 L 676.4000244140625 665.4000244140625 L 731.4000244140625 675.9000244140625 L 723.2999877929688 671.5999755859375 L 712.2999877929688 643.2000122070312 L 690 632.0999755859375 L 643.7000122070312 560.5 L 641.9000244140625 545.0999755859375 L 684.5 562.9000244140625 L 605.4000244140625 519.0999755859375 L 625.2000122070312 527.0999755859375 L 599.0999755859375 501.3999938964844 L 503.3999938964844 492.1000061035156 L 402.79998779296875 539.5999755859375 Z" fill-rule="evenodd" clip-rule="evenodd" fill="#FF6666"/>
		<path d="M 404.29998779296875 526.9000244140625 L 447.3999938964844 532.5 L 469.70001220703125 517.5999755859375 L 503.6000061035156 522.5 L 525.2000122070312 508.3999938964844 L 562.9000244140625 518.2000122070312 L 595.5999755859375 567.5999755859375 L 539.4000244140625 547.9000244140625 L 575.2999877929688 568.2999877929688 L 503.6000061035156 618.9000244140625 L 417.79998779296875 609.5999755859375 L 532 643.5999755859375 L 488.20001220703125 638 L 469.1000061035156 704.0999755859375 L 398.70001220703125 686.2000122070312 L 494.3999938964844 730.5999755859375 L 502.3999938964844 789.9000244140625 L 467.79998779296875 824.5 L 526.4000244140625 826.5999755859375 L 611.7000122070312 762.0999755859375 L 480.20001220703125 714.5999755859375 L 553.5999755859375 731.9000244140625 L 548.7000122070312 687.4000244140625 L 661 726.2999877929688 L 629.5999755859375 707.0999755859375 L 680.2000122070312 681.2000122070312 L 603 613.2999877929688 L 617.2000122070312 537 L 467.79998779296875 482.3999938964844 L 511 508.3999938964844 Z" opacity="0.5" fill-rule="evenodd" clip-rule="evenodd" fill="#AD2B2B"/>
		<path d="M 513.7999877929688 771.9000244140625 L 439.3999938964844 751.5999755859375 L 488.1000061035156 775.2999877929688 Z" fill-rule="evenodd" clip-rule="evenodd" fill="#FFFFFF"/>
		<path d="M 441.79998779296875 774.7000122070312 L 374.5 759.5999755859375 L 408.5 771.5999755859375 Z" fill-rule="evenodd" clip-rule="evenodd" fill="#FFFFFF"/>
		<path d="M 604.5 777.5 L 478.29998779296875 740.7000122070312 L 540.5999755859375 755.5999755859375 L 527.7000122070312 737.7000122070312 L 567.7999877929688 751.9000244140625 L 508.5 726.5999755859375 L 533.2000122070312 733.4000244140625 L 530.7000122070312 722.9000244140625 L 503.6000061035156 698.0999755859375 L 553 716.7000122070312 L 456 656.2000122070312 L 509.70001220703125 682.7000122070312 L 505.3999938964844 665.4000244140625 L 487.5 653.7000122070312 L 547.4000244140625 650 L 557.9000244140625 643.2000122070312 L 658.5 653.0999755859375 L 564.7000122070312 627.2000122070312 L 702.4000244140625 655 L 488.79998779296875 592.5999755859375 L 650.5 630.9000244140625 L 623.2999877929688 591.4000244140625 L 595.5999755859375 580.9000244140625 L 649.9000244140625 589.5 L 619 579 L 599.2999877929688 550.5999755859375 L 549.9000244140625 523.4000244140625 L 617.2000122070312 537 L 580.7999877929688 525.9000244140625 L 566.0999755859375 498.20001220703125 L 670.2999877929688 540.0999755859375 L 636.9000244140625 530.7999877929688 L 680.2000122070312 587 L 638.7999877929688 570.4000244140625 L 680.7999877929688 630.9000244140625 L 774.5999755859375 670.4000244140625 L 704.2000122070312 648.2000122070312 L 762.2999877929688 717.2999877929688 L 595.5999755859375 667.9000244140625 L 569 677.2000122070312 L 702.4000244140625 714.7999877929688 L 609.0999755859375 693.2000122070312 L 640.5999755859375 732.7000122070312 L 577 729 Z" opacity="0.5" fill-rule="evenodd" clip-rule="evenodd"/>
	</g>
</g>
<g>
	<path fill-rule="evenodd" clip-rule="evenodd" fill="#FFFFFF" d="M981.5,240.4c34.9,0,63.2,28.3,63.2,63.2&#10;&#9;&#9;c0,34.9-28.3,63.2-63.2,63.2c-34.9,0-63.2-28.3-63.2-63.2c0-13.9,4.5-26.8,12.1-37.2l31.1,9.2l-27.5-13.7&#10;&#9;&#9;C945.7,248.7,962.6,240.4,981.5,240.4L981.5,240.4z"/>
	<path d="M 969.7000122070312 279.6000061035156 L 880.2000122070312 234.89999389648438 L 947.5 253.10000610351562 Z" fill-rule="evenodd" clip-rule="evenodd" fill="#FFFFFF"/>
	<path d="M 896.7999877929688 290.8999938964844 L 826.2000122070312 255.39999389648438 L 873.0999755859375 283.20001220703125 Z" fill-rule="evenodd" clip-rule="evenodd" fill="#FFFFFF"/>
	<path d="M 958 353.70001220703125 L 886.7000122070312 308.8999938964844 L 941.5999755859375 352.70001220703125 Z" fill-rule="evenodd" clip-rule="evenodd" fill="#FFFFFF"/>
	<path d="M 988.2999877929688 240.8000030517578 L 912.2999877929688 230.5 L 1009.9000244140625 255.3000030517578 Z" fill-rule="evenodd" clip-rule="evenodd" fill="#FFFFFF"/>
	<path d="M 973.7000122070312 235.5 L 992.5999755859375 248.1999969482422 L 1010 258.20001220703125 L 1008.0999755859375 272.3999938964844 L 926.7999877929688 251.5 L 1003.7000122070312 294.79998779296875 L 1001.7999877929688 308.8999938964844 L 982.0999755859375 314.5 L 994.4000244140625 328.3999938964844 L 973.7000122070312 333.29998779296875 L 901.2000122070312 300 L 992.5999755859375 348.79998779296875 L 976.7999877929688 345.70001220703125 L 954.9000244140625 353.5 L 984.2000122070312 362.70001220703125 L 1014.7999877929688 355.20001220703125 L 1041 314.79998779296875 L 1066.300048828125 327.20001220703125 L 1018.7999877929688 297.20001220703125 L 1040.699951171875 305.8999938964844 L 1032.0999755859375 276.8999938964844 L 1010.2000122070312 250 Z" opacity="0.5" fill-rule="evenodd" clip-rule="evenodd" fill="#B3B3B3"/>
	<path fill-rule="evenodd" clip-rule="evenodd" fill="#333333" d="M1035.8,302.2l-18.5,21.6v25.9l19.1-14.7L1035.8,302.2z&#10;&#9;&#9; M1017,275.6l-22.9-8.3l0.3-16l20.7,9.2L1017,275.6z M997.8,272.2l-7.7-1.9l1.9,4.9L997.8,272.2z M985.2,326.9l-31.5,4l-7.4-18.8&#10;&#9;&#9;l23.2-2.5L985.2,326.9z"/>
</g>
</svg>