<?xml version="1.0" encoding="utf-8"?>
<svg id="master-artboard" viewBox="0 0 1400 1400" version="1.1" xmlns="http://www.w3.org/2000/svg" x="0px" y="0px" style="enable-background:new 0 0 1400 1400;" width="1400px" height="1400px" xmlns:xlink="http://www.w3.org/1999/xlink">

<linearGradient id="SVGID_1_" gradientUnits="userSpaceOnUse" x1="700" y1="-140.0072" x2="700" y2="850.3998">
		<stop offset="0" style="stop-color:#34C8FF"/>
		<stop offset="1" style="stop-color:#ACCA98"/>
	</linearGradient><path d="M 0 0 H 1400 V 1400 H 0 V 0 Z" class="st0" style="fill: url('#SVGID_1_'); fill-opacity: 0;" transform="matrix(1, 0, 0, 1, 0, 9.094947017729282e-13)"/>
<path class="st1" d="M1211.36,106.92C1156.7,86.29,1069.2,61.87,992.8,61.87c-132.29,0-431.8,14.64-514.5-7.32&#10;&#9;&#9;C395.61,32.58,279.79,0,279.79,0H0v160.71c17.85,3.19,53.17,6.57,95.38,9.41c23.21,1.56,22.71,36.11-0.55,36.74&#10;&#9;&#9;c-0.19,0.01-0.37,0.01-0.54,0.01c-27.79,0,41.5,20.31,116.06,20.31c74.55,0,289.29,8.11,338.5-20.31&#10;&#9;&#9;c49.22-28.41,172.64,19.57,142.13,37.18c-30.52,17.62,253.41,13.52,286.61-19.69c33.21-33.21,5.81,16.88,103.62,11.25&#10;&#9;&#9;S1400,246.87,1400,246.87V100.6C1331.89,97.26,1268.66,100.57,1211.36,106.92z M375.09,160.71&#10;&#9;&#9;c-18.03-10.41,27.17-12.78,89.41-12.54c-28,4.49-57.45,9.29-87,14.14C376.83,161.79,376.05,161.26,375.09,160.71z M1044.2,134.35&#10;&#9;&#9;c-48.7,9.87-138.61,3.47-225.48-3.12c-4.55-0.35-4.3-7.1,0.27-7.11c14.15-0.02,29.37-0.02,45.66-0.02&#10;&#9;&#9;c58.02,0,120.9,1.37,179.26,3.14c4.23,0.13,4.73,6.21,0.59,7.05C1044.4,134.31,1044.3,134.33,1044.2,134.35z" style="opacity: 0.1; fill: rgb(255, 255, 255);" transform="matrix(1, 0, 0, 1, 0, 9.094947017729282e-13)"/><path class="st1" d="M0,247.91v146.27c0,0,220.98-16.88,318.79-11.25c97.81,5.63,70.42-44.46,103.62-11.25&#10;&#9;&#9;s317.13,37.31,286.61,19.69c-30.52-17.62,92.91-65.6,142.13-37.18c49.22,28.41,263.95,20.31,338.5,20.31&#10;&#9;&#9;c74.55,0,143.84-20.31,116.06-20.31c-11.97,0-96.16-13.75-195.44-30.1c97.87,0.7,246.07-8.24,289.73-16.05V147.32h-279.79&#10;&#9;&#9;c0,0-115.81,32.58-198.51,54.55c-82.7,21.96-382.21,7.32-514.5,7.32c-76.4,0-163.9,24.42-218.56,45.05&#10;&#9;&#9;C131.34,247.89,68.11,244.58,0,247.91z M1022.5,309.63c-29.55-4.85-59-9.65-87-14.14c62.24-0.24,107.44,2.13,89.41,12.54&#10;&#9;&#9;C1023.95,308.58,1023.17,309.11,1022.5,309.63z M325.01,275.55c66.6-2.23,141.85-4.14,210.33-4.14c57.91,0,102.33,0,133.17,0.88&#10;&#9;&#9;c-106.93,6.45-247.17,22.65-312.72,9.36C345.92,279.66,335.64,277.61,325.01,275.55z" style="opacity: 0.1; fill: rgb(255, 255, 255);" transform="matrix(1, 0, 0, 1, 0, 9.094947017729282e-13)"/><path class="st2" d="M1400,223.34c-47.88,7.87-167.44,171.51-175.28,227.52s63.1,47.86,63.1,66.99&#10;&#9;&#9;c0,19.13-148.02,159.37-124.96,192.7c23.06,33.32,73.31,46.15,87.98,70.81c14.67,24.66-104.39,127.16-104.39,127.16H1400V223.34z" style="fill: rgb(52, 152, 180);" transform="matrix(1, 0, 0, 1, 0, 9.094947017729282e-13)"/><linearGradient id="SVGID_2_" gradientUnits="userSpaceOnUse" x1="700" y1="1390.2921" x2="700" y2="873.6539">
		<stop offset="0" style="stop-color:#3A9351"/>
		<stop offset="1" style="stop-color:#7E9C4C"/>
	</linearGradient><path d="M 0 884.859985 H 1400 V 1400 H 0 V 884.859985 Z" class="st4" style="fill: url('#SVGID_2_'); fill-opacity: 1;" transform="matrix(1, 0, 0, 1, 0, 9.094947017729282e-13)"/><linearGradient id="SVGID_3_" gradientUnits="userSpaceOnUse" x1="700" y1="1067.9799" x2="700" y2="847.4763">
			<stop offset="0" style="stop-color:#3A9351"/>
			<stop offset="1" style="stop-color:#7E9C4C"/>
		</linearGradient><path d="M 1358.73999 981.869995 A 658.73999 63.650002 0 0 1 700 1045.519997 A 658.73999 63.650002 0 0 1 41.26001 981.869995 A 658.73999 63.650002 0 0 1 700 918.219994 A 658.73999 63.650002 0 0 1 1358.73999 981.869995 Z" class="st5" style="fill: url('#SVGID_3_');" transform="matrix(1, 0, 0, 1, 0, 1.8189894035458565e-12)"/><g transform="matrix(1, 0, 0, 1, 0, 2.7284841053187847e-12)">
				<g>
					<path d="M 297.5 961.0999755859375 L 169.5800018310547 375.1600036621094 L 135.66000366210938 383.7900085449219 L 261.3800048828125 961.0999755859375 Z" class="st6" style="fill: rgb(218, 232, 247);"/>
				</g>
				<g>
					<path d="M 297.5 961.0999755859375 L 169.5800018310547 375.1600036621094 L 135.66000366210938 383.7900085449219 L 261.3800048828125 961.0999755859375 Z" class="st6" style="fill: rgb(218, 232, 247);"/>
				</g>
				<g>
					<path d="M 1138.6199951171875 961.0999755859375 L 1264.3399658203125 383.7900085449219 L 1230.4200439453125 375.1600036621094 L 1102.5 961.0999755859375 Z" class="st6" style="fill: rgb(218, 232, 247);"/>
				</g>
			</g><path class="st6" d="M1280.61,414.23l-7.82-7.82l-1.57,1.57l7.82,7.82l-31.93,31.93l-31.93-31.93l7.82-7.82l-1.57-1.57&#10;&#9;&#9;&#9;&#9;l-7.82,7.82l-7.82-7.82l-1.57,1.57l7.82,7.82l-31.93,31.93l-31.93-31.93l7.82-7.82l-1.57-1.57l-7.82,7.82l-7.82-7.82l-1.57,1.57&#10;&#9;&#9;&#9;&#9;l7.82,7.82l-31.93,31.93l-31.93-31.93l7.82-7.82l-1.57-1.57l-7.82,7.82l-7.82-7.82l-1.57,1.57l7.82,7.82l-31.93,31.93&#10;&#9;&#9;&#9;&#9;l-31.93-31.93l7.82-7.82l-1.57-1.57l-7.82,7.82l-7.82-7.82l-1.57,1.57l7.82,7.82l-31.93,31.93l-31.93-31.93l7.82-7.82l-1.57-1.57&#10;&#9;&#9;&#9;&#9;l-7.82,7.82l-7.82-7.82l-1.57,1.57l7.82,7.82l-31.93,31.93l-31.93-31.93l7.82-7.82l-1.57-1.57l-7.82,7.82l-7.82-7.82l-1.57,1.57&#10;&#9;&#9;&#9;&#9;l7.82,7.82l-31.93,31.93l-31.93-31.93l7.82-7.82l-1.57-1.57l-7.82,7.82l-7.82-7.82l-1.57,1.57l7.82,7.82l-31.93,31.93&#10;&#9;&#9;&#9;&#9;l-31.93-31.93l7.82-7.82l-1.57-1.57l-7.82,7.82l-7.82-7.82l-1.57,1.57l7.82,7.82l-31.93,31.93l-31.93-31.93l7.82-7.82l-1.57-1.57&#10;&#9;&#9;&#9;&#9;l-7.82,7.82l-7.82-7.82l-1.57,1.57l7.82,7.82l-31.93,31.93l-31.93-31.93l7.82-7.82l-1.57-1.57l-7.82,7.82l-7.82-7.82l-1.57,1.57&#10;&#9;&#9;&#9;&#9;l7.82,7.82l-31.93,31.93l-31.93-31.93l7.82-7.82l-1.57-1.57l-7.82,7.82l-7.82-7.82l-1.57,1.57l7.82,7.82l-31.93,31.93&#10;&#9;&#9;&#9;&#9;L478.3,415.8l7.82-7.82l-1.57-1.57l-7.82,7.82l-7.82-7.82l-1.57,1.57l7.82,7.82l-31.93,31.93l-31.93-31.93l7.82-7.82l-1.57-1.57&#10;&#9;&#9;&#9;&#9;l-7.82,7.82l-7.82-7.82l-1.57,1.57l7.82,7.82l-31.93,31.93l-31.93-31.93l7.82-7.82l-1.57-1.57l-7.82,7.82l-7.82-7.82l-1.57,1.57&#10;&#9;&#9;&#9;&#9;l7.82,7.82l-31.93,31.93l-31.93-31.93l7.82-7.82l-1.57-1.57l-7.82,7.82l-7.82-7.82l-1.57,1.57l7.82,7.82l-31.93,31.93&#10;&#9;&#9;&#9;&#9;l-31.93-31.93l7.82-7.82l-1.57-1.57l-7.82,7.82l-7.82-7.82l-1.57,1.57l7.82,7.82l-31.93,31.93l-31.93-31.93l7.82-7.82l-1.57-1.57&#10;&#9;&#9;&#9;&#9;l-7.82,7.82l-7.82-7.82l-1.57,1.57l7.82,7.82l-20.83,20.83v3.14l22.4-22.4l31.93,31.93l-31.93,31.93l-22.4-22.4v3.14l20.83,20.83&#10;&#9;&#9;&#9;&#9;l-20.83,20.83v3.14l22.4-22.4l31.93,31.93l-31.93,31.93l-22.4-22.4v3.14l20.83,20.83l-20.83,20.83v3.14l22.4-22.4l31.93,31.93&#10;&#9;&#9;&#9;&#9;l-31.93,31.93l-22.4-22.4v3.14l20.83,20.83l-20.83,20.83v3.14l22.4-22.4l31.93,31.93l-31.93,31.93l-22.4-22.4v3.14l20.83,20.83&#10;&#9;&#9;&#9;&#9;l-20.83,20.83v3.14l22.4-22.4l31.93,31.93l-31.93,31.93l-22.4-22.4v3.14l20.83,20.83l-20.83,20.83v3.14l22.4-22.4l31.93,31.93&#10;&#9;&#9;&#9;&#9;l-31.93,31.93l-22.4-22.4v3.14l20.83,20.83l-20.83,20.83v3.14l22.4-22.4l31.93,31.93l-31.93,31.93l-22.4-22.4v3.14l20.83,20.83&#10;&#9;&#9;&#9;&#9;l-20.83,20.83v3.14l22.4-22.4l31.93,31.93l-31.93,31.93l-22.4-22.4v3.14l20.83,20.83l-7.82,7.82l1.57,1.57l7.82-7.82l7.82,7.82&#10;&#9;&#9;&#9;&#9;l1.57-1.57l-7.82-7.82l31.93-31.93l31.93,31.93l-7.82,7.82l1.57,1.57l7.82-7.82l7.82,7.82l1.57-1.57l-7.82-7.82l31.93-31.93&#10;&#9;&#9;&#9;&#9;l31.93,31.93l-7.82,7.82l1.57,1.57l7.82-7.82l7.82,7.82l1.57-1.57l-7.82-7.82l31.93-31.93l31.93,31.93l-7.82,7.82l1.57,1.57&#10;&#9;&#9;&#9;&#9;l7.82-7.82l7.82,7.82l1.57-1.57l-7.82-7.82l31.93-31.93l31.93,31.93l-7.82,7.82l1.57,1.57l7.82-7.82l7.82,7.82l1.57-1.57&#10;&#9;&#9;&#9;&#9;l-7.82-7.82l31.93-31.93l31.93,31.93l-7.82,7.82l1.57,1.57l7.82-7.82l7.82,7.82l1.57-1.57l-7.82-7.82l31.93-31.93l31.93,31.93&#10;&#9;&#9;&#9;&#9;l-7.82,7.82l1.57,1.57l7.82-7.82l7.82,7.82l1.57-1.57l-7.82-7.82l31.93-31.93l31.93,31.93l-7.82,7.82l1.57,1.57l7.82-7.82&#10;&#9;&#9;&#9;&#9;l7.82,7.82l1.57-1.57l-7.82-7.82l31.93-31.93l31.93,31.93l-7.82,7.82l1.57,1.57l7.82-7.82l7.82,7.82l1.57-1.57l-7.82-7.82&#10;&#9;&#9;&#9;&#9;l31.93-31.93l31.93,31.93l-7.82,7.82l1.57,1.57l7.82-7.82l7.82,7.82l1.57-1.57l-7.82-7.82l31.93-31.93l31.93,31.93l-7.82,7.82&#10;&#9;&#9;&#9;&#9;l1.57,1.57l7.82-7.82l7.82,7.82l1.57-1.57l-7.82-7.82l31.93-31.93l31.93,31.93l-7.82,7.82l1.57,1.57l7.82-7.82l7.82,7.82&#10;&#9;&#9;&#9;&#9;l1.57-1.57l-7.82-7.82l31.93-31.93l31.93,31.93l-7.82,7.82l1.57,1.57l7.82-7.82l7.82,7.82l1.57-1.57l-7.82-7.82l31.93-31.93&#10;&#9;&#9;&#9;&#9;l31.93,31.93l-7.82,7.82l1.57,1.57l7.82-7.82l7.82,7.82l1.57-1.57l-7.82-7.82l31.93-31.93l31.93,31.93l-7.82,7.82l1.57,1.57&#10;&#9;&#9;&#9;&#9;l7.82-7.82l7.82,7.82l1.57-1.57l-7.82-7.82l31.93-31.93l31.93,31.93l-7.82,7.82l1.57,1.57l7.82-7.82l7.82,7.82l1.57-1.57&#10;&#9;&#9;&#9;&#9;l-7.82-7.82l31.93-31.93l31.93,31.93l-7.82,7.82l1.57,1.57l7.82-7.82l7.82,7.82l1.57-1.57l-7.82-7.82l31.93-31.93l31.93,31.93&#10;&#9;&#9;&#9;&#9;l-7.82,7.82l1.57,1.57l7.82-7.82v-3.14l-31.93-31.93l31.93-31.93v-3.14l-31.93-31.93l31.93-31.93v-3.14l-31.93-31.93l31.93-31.93&#10;&#9;&#9;&#9;&#9;v-3.14l-31.93-31.93l31.93-31.93v-3.14l-31.93-31.93l31.93-31.93v-3.14l-31.93-31.93l31.93-31.93v-3.14l-31.93-31.93l31.93-31.93&#10;&#9;&#9;&#9;&#9;v-3.14l-31.93-31.93l31.93-31.93V414.23z M1213.62,417.37l31.93,31.93l-31.93,31.93l-31.93-31.93L1213.62,417.37z M307.69,717.25&#10;&#9;&#9;&#9;&#9;l-31.93,31.93l-31.93-31.93l31.93-31.93L307.69,717.25z M243.84,650.26l31.93-31.93l31.93,31.93l-31.93,31.93L243.84,650.26z&#10;&#9;&#9;&#9;&#9; M277.34,683.76l31.93-31.93l31.93,31.93l-31.93,31.93L277.34,683.76z M310.83,650.26l31.93-31.93l31.93,31.93l-31.93,31.93&#10;&#9;&#9;&#9;&#9;L310.83,650.26z M342.76,685.33l31.93,31.93l-31.93,31.93l-31.93-31.93L342.76,685.33z M344.33,683.76l31.93-31.93l31.93,31.93&#10;&#9;&#9;&#9;&#9;l-31.93,31.93L344.33,683.76z M377.82,650.26l31.93-31.93l31.93,31.93l-31.93,31.93L377.82,650.26z M409.75,685.33l31.93,31.93&#10;&#9;&#9;&#9;&#9;l-31.93,31.93l-31.93-31.93L409.75,685.33z M411.32,683.76l31.93-31.93l31.93,31.93l-31.93,31.93L411.32,683.76z M444.81,650.26&#10;&#9;&#9;&#9;&#9;l31.93-31.93l31.93,31.93l-31.93,31.93L444.81,650.26z M476.74,685.33l31.93,31.93l-31.93,31.93l-31.93-31.93L476.74,685.33z&#10;&#9;&#9;&#9;&#9; M478.3,683.76l31.93-31.93l31.93,31.93l-31.93,31.93L478.3,683.76z M511.8,650.26l31.93-31.93l31.93,31.93l-31.93,31.93&#10;&#9;&#9;&#9;&#9;L511.8,650.26z M543.73,685.33l31.93,31.93l-31.93,31.93l-31.93-31.93L543.73,685.33z M545.29,683.76l31.93-31.93l31.93,31.93&#10;&#9;&#9;&#9;&#9;l-31.93,31.93L545.29,683.76z M578.79,650.26l31.93-31.93l31.93,31.93l-31.93,31.93L578.79,650.26z M610.72,685.33l31.93,31.93&#10;&#9;&#9;&#9;&#9;l-31.93,31.93l-31.93-31.93L610.72,685.33z M612.28,683.76l31.93-31.93l31.93,31.93l-31.93,31.93L612.28,683.76z M645.78,650.26&#10;&#9;&#9;&#9;&#9;l31.93-31.93l31.93,31.93l-31.93,31.93L645.78,650.26z M677.7,685.33l31.93,31.93l-31.93,31.93l-31.93-31.93L677.7,685.33z&#10;&#9;&#9;&#9;&#9; M679.27,683.76l31.93-31.93l31.93,31.93l-31.93,31.93L679.27,683.76z M712.77,650.26l31.93-31.93l31.93,31.93l-31.93,31.93&#10;&#9;&#9;&#9;&#9;L712.77,650.26z M744.69,685.33l31.93,31.93l-31.93,31.93l-31.93-31.93L744.69,685.33z M746.26,683.76l31.93-31.93l31.93,31.93&#10;&#9;&#9;&#9;&#9;l-31.93,31.93L746.26,683.76z M779.76,650.26l31.93-31.93l31.93,31.93l-31.93,31.93L779.76,650.26z M811.68,685.33l31.93,31.93&#10;&#9;&#9;&#9;&#9;l-31.93,31.93l-31.93-31.93L811.68,685.33z M813.25,683.76l31.93-31.93l31.93,31.93l-31.93,31.93L813.25,683.76z M846.75,650.26&#10;&#9;&#9;&#9;&#9;l31.93-31.93l31.93,31.93l-31.93,31.93L846.75,650.26z M878.67,685.33l31.93,31.93l-31.93,31.93l-31.93-31.93L878.67,685.33z&#10;&#9;&#9;&#9;&#9; M880.24,683.76l31.93-31.93l31.93,31.93l-31.93,31.93L880.24,683.76z M913.74,650.26l31.93-31.93l31.93,31.93l-31.93,31.93&#10;&#9;&#9;&#9;&#9;L913.74,650.26z M945.66,685.33l31.93,31.93l-31.93,31.93l-31.93-31.93L945.66,685.33z M947.23,683.76l31.93-31.93l31.93,31.93&#10;&#9;&#9;&#9;&#9;l-31.93,31.93L947.23,683.76z M980.73,650.26l31.93-31.93l31.93,31.93l-31.93,31.93L980.73,650.26z M1012.65,685.33l31.93,31.93&#10;&#9;&#9;&#9;&#9;l-31.93,31.93l-31.93-31.93L1012.65,685.33z M1014.22,683.76l31.93-31.93l31.93,31.93l-31.93,31.93L1014.22,683.76z&#10;&#9;&#9;&#9;&#9; M1047.72,650.26l31.93-31.93l31.93,31.93l-31.93,31.93L1047.72,650.26z M1079.64,685.33l31.93,31.93l-31.93,31.93l-31.93-31.93&#10;&#9;&#9;&#9;&#9;L1079.64,685.33z M1081.21,683.76l31.93-31.93l31.93,31.93l-31.93,31.93L1081.21,683.76z M1146.63,685.33l31.93,31.93&#10;&#9;&#9;&#9;&#9;l-31.93,31.93l-31.93-31.93L1146.63,685.33z M1114.71,650.26l31.93-31.93l31.93,31.93l-31.93,31.93L1114.71,650.26z&#10;&#9;&#9;&#9;&#9; M1114.71,583.27l31.93-31.93l31.93,31.93l-31.93,31.93L1114.71,583.27z M1145.06,616.77l-31.93,31.93l-31.93-31.93l31.93-31.93&#10;&#9;&#9;&#9;&#9;L1145.06,616.77z M1079.64,615.2l-31.93-31.93l31.93-31.93l31.93,31.93L1079.64,615.2z M1078.07,616.77l-31.93,31.93&#10;&#9;&#9;&#9;&#9;l-31.93-31.93l31.93-31.93L1078.07,616.77z M1012.65,615.2l-31.93-31.93l31.93-31.93l31.93,31.93L1012.65,615.2z M1011.08,616.77&#10;&#9;&#9;&#9;&#9;l-31.93,31.93l-31.93-31.93l31.93-31.93L1011.08,616.77z M945.66,615.2l-31.93-31.93l31.93-31.93l31.93,31.93L945.66,615.2z&#10;&#9;&#9;&#9;&#9; M944.09,616.77l-31.93,31.93l-31.93-31.93l31.93-31.93L944.09,616.77z M878.67,615.2l-31.93-31.93l31.93-31.93l31.93,31.93&#10;&#9;&#9;&#9;&#9;L878.67,615.2z M877.1,616.77l-31.93,31.93l-31.93-31.93l31.93-31.93L877.1,616.77z M811.68,615.2l-31.93-31.93l31.93-31.93&#10;&#9;&#9;&#9;&#9;l31.93,31.93L811.68,615.2z M810.11,616.77l-31.93,31.93l-31.93-31.93l31.93-31.93L810.11,616.77z M744.69,615.2l-31.93-31.93&#10;&#9;&#9;&#9;&#9;l31.93-31.93l31.93,31.93L744.69,615.2z M743.12,616.77l-31.93,31.93l-31.93-31.93l31.93-31.93L743.12,616.77z M677.7,615.2&#10;&#9;&#9;&#9;&#9;l-31.93-31.93l31.93-31.93l31.93,31.93L677.7,615.2z M676.14,616.77l-31.93,31.93l-31.93-31.93l31.93-31.93L676.14,616.77z&#10;&#9;&#9;&#9;&#9; M610.72,615.2l-31.93-31.93l31.93-31.93l31.93,31.93L610.72,615.2z M609.15,616.77l-31.93,31.93l-31.93-31.93l31.93-31.93&#10;&#9;&#9;&#9;&#9;L609.15,616.77z M543.73,615.2l-31.93-31.93l31.93-31.93l31.93,31.93L543.73,615.2z M542.16,616.77l-31.93,31.93l-31.93-31.93&#10;&#9;&#9;&#9;&#9;l31.93-31.93L542.16,616.77z M476.74,615.2l-31.93-31.93l31.93-31.93l31.93,31.93L476.74,615.2z M475.17,616.77l-31.93,31.93&#10;&#9;&#9;&#9;&#9;l-31.93-31.93l31.93-31.93L475.17,616.77z M409.75,615.2l-31.93-31.93l31.93-31.93l31.93,31.93L409.75,615.2z M408.18,616.77&#10;&#9;&#9;&#9;&#9;l-31.93,31.93l-31.93-31.93l31.93-31.93L408.18,616.77z M342.76,615.2l-31.93-31.93l31.93-31.93l31.93,31.93L342.76,615.2z&#10;&#9;&#9;&#9;&#9; M341.19,616.77l-31.93,31.93l-31.93-31.93l31.93-31.93L341.19,616.77z M275.77,615.2l-31.93-31.93l31.93-31.93l31.93,31.93&#10;&#9;&#9;&#9;&#9;L275.77,615.2z M274.2,616.77l-31.93,31.93l-31.93-31.93l31.93-31.93L274.2,616.77z M274.2,683.76l-31.93,31.93l-31.93-31.93&#10;&#9;&#9;&#9;&#9;l31.93-31.93L274.2,683.76z M274.2,750.75l-31.93,31.93l-31.93-31.93l31.93-31.93L274.2,750.75z M275.77,752.32l31.93,31.93&#10;&#9;&#9;&#9;&#9;l-31.93,31.93l-31.93-31.93L275.77,752.32z M277.34,750.75l31.93-31.93l31.93,31.93l-31.93,31.93L277.34,750.75z M342.76,752.32&#10;&#9;&#9;&#9;&#9;l31.93,31.93l-31.93,31.93l-31.93-31.93L342.76,752.32z M344.33,750.75l31.93-31.93l31.93,31.93l-31.93,31.93L344.33,750.75z&#10;&#9;&#9;&#9;&#9; M409.75,752.32l31.93,31.93l-31.93,31.93l-31.93-31.93L409.75,752.32z M411.32,750.75l31.93-31.93l31.93,31.93l-31.93,31.93&#10;&#9;&#9;&#9;&#9;L411.32,750.75z M476.74,752.32l31.93,31.93l-31.93,31.93l-31.93-31.93L476.74,752.32z M478.3,750.75l31.93-31.93l31.93,31.93&#10;&#9;&#9;&#9;&#9;l-31.93,31.93L478.3,750.75z M543.73,752.32l31.93,31.93l-31.93,31.93l-31.93-31.93L543.73,752.32z M545.29,750.75l31.93-31.93&#10;&#9;&#9;&#9;&#9;l31.93,31.93l-31.93,31.93L545.29,750.75z M610.72,752.32l31.93,31.93l-31.93,31.93l-31.93-31.93L610.72,752.32z M612.28,750.75&#10;&#9;&#9;&#9;&#9;l31.93-31.93l31.93,31.93l-31.93,31.93L612.28,750.75z M677.7,752.32l31.93,31.93l-31.93,31.93l-31.93-31.93L677.7,752.32z&#10;&#9;&#9;&#9;&#9; M679.27,750.75l31.93-31.93l31.93,31.93l-31.93,31.93L679.27,750.75z M744.69,752.32l31.93,31.93l-31.93,31.93l-31.93-31.93&#10;&#9;&#9;&#9;&#9;L744.69,752.32z M746.26,750.75l31.93-31.93l31.93,31.93l-31.93,31.93L746.26,750.75z M811.68,752.32l31.93,31.93l-31.93,31.93&#10;&#9;&#9;&#9;&#9;l-31.93-31.93L811.68,752.32z M813.25,750.75l31.93-31.93l31.93,31.93l-31.93,31.93L813.25,750.75z M878.67,752.32l31.93,31.93&#10;&#9;&#9;&#9;&#9;l-31.93,31.93l-31.93-31.93L878.67,752.32z M880.24,750.75l31.93-31.93l31.93,31.93l-31.93,31.93L880.24,750.75z M945.66,752.32&#10;&#9;&#9;&#9;&#9;l31.93,31.93l-31.93,31.93l-31.93-31.93L945.66,752.32z M947.23,750.75l31.93-31.93l31.93,31.93l-31.93,31.93L947.23,750.75z&#10;&#9;&#9;&#9;&#9; M1012.65,752.32l31.93,31.93l-31.93,31.93l-31.93-31.93L1012.65,752.32z M1014.22,750.75l31.93-31.93l31.93,31.93l-31.93,31.93&#10;&#9;&#9;&#9;&#9;L1014.22,750.75z M1079.64,752.32l31.93,31.93l-31.93,31.93l-31.93-31.93L1079.64,752.32z M1081.21,750.75l31.93-31.93&#10;&#9;&#9;&#9;&#9;l31.93,31.93l-31.93,31.93L1081.21,750.75z M1146.63,752.32l31.93,31.93l-31.93,31.93l-31.93-31.93L1146.63,752.32z&#10;&#9;&#9;&#9;&#9; M1148.2,750.75l31.93-31.93l31.93,31.93l-31.93,31.93L1148.2,750.75z M1148.2,683.76l31.93-31.93l31.93,31.93l-31.93,31.93&#10;&#9;&#9;&#9;&#9;L1148.2,683.76z M1148.2,616.77l31.93-31.93l31.93,31.93l-31.93,31.93L1148.2,616.77z M1148.2,549.78l31.93-31.93l31.93,31.93&#10;&#9;&#9;&#9;&#9;l-31.93,31.93L1148.2,549.78z M1146.63,548.21l-31.93-31.93l31.93-31.93l31.93,31.93L1146.63,548.21z M1145.06,549.78&#10;&#9;&#9;&#9;&#9;l-31.93,31.93l-31.93-31.93l31.93-31.93L1145.06,549.78z M1079.64,548.21l-31.93-31.93l31.93-31.93l31.93,31.93L1079.64,548.21z&#10;&#9;&#9;&#9;&#9; M1078.07,549.78l-31.93,31.93l-31.93-31.93l31.93-31.93L1078.07,549.78z M1012.65,548.21l-31.93-31.93l31.93-31.93l31.93,31.93&#10;&#9;&#9;&#9;&#9;L1012.65,548.21z M1011.08,549.78l-31.93,31.93l-31.93-31.93l31.93-31.93L1011.08,549.78z M945.66,548.21l-31.93-31.93&#10;&#9;&#9;&#9;&#9;l31.93-31.93l31.93,31.93L945.66,548.21z M944.09,549.78l-31.93,31.93l-31.93-31.93l31.93-31.93L944.09,549.78z M878.67,548.21&#10;&#9;&#9;&#9;&#9;l-31.93-31.93l31.93-31.93l31.93,31.93L878.67,548.21z M877.1,549.78l-31.93,31.93l-31.93-31.93l31.93-31.93L877.1,549.78z&#10;&#9;&#9;&#9;&#9; M811.68,548.21l-31.93-31.93l31.93-31.93l31.93,31.93L811.68,548.21z M810.11,549.78l-31.93,31.93l-31.93-31.93l31.93-31.93&#10;&#9;&#9;&#9;&#9;L810.11,549.78z M744.69,548.21l-31.93-31.93l31.93-31.93l31.93,31.93L744.69,548.21z M743.12,549.78L711.2,581.7l-31.93-31.93&#10;&#9;&#9;&#9;&#9;l31.93-31.93L743.12,549.78z M677.7,548.21l-31.93-31.93l31.93-31.93l31.93,31.93L677.7,548.21z M676.14,549.78l-31.93,31.93&#10;&#9;&#9;&#9;&#9;l-31.93-31.93l31.93-31.93L676.14,549.78z M610.72,548.21l-31.93-31.93l31.93-31.93l31.93,31.93L610.72,548.21z M609.15,549.78&#10;&#9;&#9;&#9;&#9;l-31.93,31.93l-31.93-31.93l31.93-31.93L609.15,549.78z M543.73,548.21l-31.93-31.93l31.93-31.93l31.93,31.93L543.73,548.21z&#10;&#9;&#9;&#9;&#9; M542.16,549.78l-31.93,31.93l-31.93-31.93l31.93-31.93L542.16,549.78z M476.74,548.21l-31.93-31.93l31.93-31.93l31.93,31.93&#10;&#9;&#9;&#9;&#9;L476.74,548.21z M475.17,549.78l-31.93,31.93l-31.93-31.93l31.93-31.93L475.17,549.78z M409.75,548.21l-31.93-31.93l31.93-31.93&#10;&#9;&#9;&#9;&#9;l31.93,31.93L409.75,548.21z M408.18,549.78l-31.93,31.93l-31.93-31.93l31.93-31.93L408.18,549.78z M342.76,548.21l-31.93-31.93&#10;&#9;&#9;&#9;&#9;l31.93-31.93l31.93,31.93L342.76,548.21z M341.19,549.78l-31.93,31.93l-31.93-31.93l31.93-31.93L341.19,549.78z M275.77,548.21&#10;&#9;&#9;&#9;&#9;l-31.93-31.93l31.93-31.93l31.93,31.93L275.77,548.21z M274.2,549.78l-31.93,31.93l-31.93-31.93l31.93-31.93L274.2,549.78z&#10;&#9;&#9;&#9;&#9; M208.78,548.21l-31.93-31.93l31.93-31.93l31.93,31.93L208.78,548.21z M240.7,583.27l-31.93,31.93l-31.93-31.93l31.93-31.93&#10;&#9;&#9;&#9;&#9;L240.7,583.27z M240.7,650.26l-31.93,31.93l-31.93-31.93l31.93-31.93L240.7,650.26z M240.7,717.25l-31.93,31.93l-31.93-31.93&#10;&#9;&#9;&#9;&#9;l31.93-31.93L240.7,717.25z M240.7,784.24l-31.93,31.93l-31.93-31.93l31.93-31.93L240.7,784.24z M240.7,851.23l-31.93,31.93&#10;&#9;&#9;&#9;&#9;l-31.93-31.93l31.93-31.93L240.7,851.23z M210.35,817.74l31.93-31.93l31.93,31.93l-31.93,31.93L210.35,817.74z M275.77,819.31&#10;&#9;&#9;&#9;&#9;l31.93,31.93l-31.93,31.93l-31.93-31.93L275.77,819.31z M277.34,817.74l31.93-31.93l31.93,31.93l-31.93,31.93L277.34,817.74z&#10;&#9;&#9;&#9;&#9; M342.76,819.31l31.93,31.93l-31.93,31.93l-31.93-31.93L342.76,819.31z M344.33,817.74l31.93-31.93l31.93,31.93l-31.93,31.93&#10;&#9;&#9;&#9;&#9;L344.33,817.74z M409.75,819.31l31.93,31.93l-31.93,31.93l-31.93-31.93L409.75,819.31z M411.32,817.74l31.93-31.93l31.93,31.93&#10;&#9;&#9;&#9;&#9;l-31.93,31.93L411.32,817.74z M476.74,819.31l31.93,31.93l-31.93,31.93l-31.93-31.93L476.74,819.31z M478.3,817.74l31.93-31.93&#10;&#9;&#9;&#9;&#9;l31.93,31.93l-31.93,31.93L478.3,817.74z M543.73,819.31l31.93,31.93l-31.93,31.93l-31.93-31.93L543.73,819.31z M545.29,817.74&#10;&#9;&#9;&#9;&#9;l31.93-31.93l31.93,31.93l-31.93,31.93L545.29,817.74z M610.72,819.31l31.93,31.93l-31.93,31.93l-31.93-31.93L610.72,819.31z&#10;&#9;&#9;&#9;&#9; M612.28,817.74l31.93-31.93l31.93,31.93l-31.93,31.93L612.28,817.74z M677.7,819.31l31.93,31.93l-31.93,31.93l-31.93-31.93&#10;&#9;&#9;&#9;&#9;L677.7,819.31z M679.27,817.74l31.93-31.93l31.93,31.93l-31.93,31.93L679.27,817.74z M744.69,819.31l31.93,31.93l-31.93,31.93&#10;&#9;&#9;&#9;&#9;l-31.93-31.93L744.69,819.31z M746.26,817.74l31.93-31.93l31.93,31.93l-31.93,31.93L746.26,817.74z M811.68,819.31l31.93,31.93&#10;&#9;&#9;&#9;&#9;l-31.93,31.93l-31.93-31.93L811.68,819.31z M813.25,817.74l31.93-31.93l31.93,31.93l-31.93,31.93L813.25,817.74z M878.67,819.31&#10;&#9;&#9;&#9;&#9;l31.93,31.93l-31.93,31.93l-31.93-31.93L878.67,819.31z M880.24,817.74l31.93-31.93l31.93,31.93l-31.93,31.93L880.24,817.74z&#10;&#9;&#9;&#9;&#9; M945.66,819.31l31.93,31.93l-31.93,31.93l-31.93-31.93L945.66,819.31z M947.23,817.74l31.93-31.93l31.93,31.93l-31.93,31.93&#10;&#9;&#9;&#9;&#9;L947.23,817.74z M1012.65,819.31l31.93,31.93l-31.93,31.93l-31.93-31.93L1012.65,819.31z M1014.22,817.74l31.93-31.93&#10;&#9;&#9;&#9;&#9;l31.93,31.93l-31.93,31.93L1014.22,817.74z M1079.64,819.31l31.93,31.93l-31.93,31.93l-31.93-31.93L1079.64,819.31z&#10;&#9;&#9;&#9;&#9; M1081.21,817.74l31.93-31.93l31.93,31.93l-31.93,31.93L1081.21,817.74z M1146.63,819.31l31.93,31.93l-31.93,31.93l-31.93-31.93&#10;&#9;&#9;&#9;&#9;L1146.63,819.31z M1148.2,817.74l31.93-31.93l31.93,31.93l-31.93,31.93L1148.2,817.74z M1213.62,819.31l31.93,31.93l-31.93,31.93&#10;&#9;&#9;&#9;&#9;l-31.93-31.93L1213.62,819.31z M1181.7,784.24l31.93-31.93l31.93,31.93l-31.93,31.93L1181.7,784.24z M1181.7,717.25l31.93-31.93&#10;&#9;&#9;&#9;&#9;l31.93,31.93l-31.93,31.93L1181.7,717.25z M1181.7,650.26l31.93-31.93l31.93,31.93l-31.93,31.93L1181.7,650.26z M1181.7,583.27&#10;&#9;&#9;&#9;&#9;l31.93-31.93l31.93,31.93l-31.93,31.93L1181.7,583.27z M1181.7,516.28l31.93-31.93l31.93,31.93l-31.93,31.93L1181.7,516.28z&#10;&#9;&#9;&#9;&#9; M1212.05,482.79l-31.93,31.93l-31.93-31.93l31.93-31.93L1212.05,482.79z M1146.63,417.37l31.93,31.93l-31.93,31.93l-31.93-31.93&#10;&#9;&#9;&#9;&#9;L1146.63,417.37z M1145.06,482.79l-31.93,31.93l-31.93-31.93l31.93-31.93L1145.06,482.79z M1079.64,417.37l31.93,31.93&#10;&#9;&#9;&#9;&#9;l-31.93,31.93l-31.93-31.93L1079.64,417.37z M1078.07,482.79l-31.93,31.93l-31.93-31.93l31.93-31.93L1078.07,482.79z&#10;&#9;&#9;&#9;&#9; M1012.65,417.37l31.93,31.93l-31.93,31.93l-31.93-31.93L1012.65,417.37z M1011.08,482.79l-31.93,31.93l-31.93-31.93l31.93-31.93&#10;&#9;&#9;&#9;&#9;L1011.08,482.79z M945.66,417.37l31.93,31.93l-31.93,31.93l-31.93-31.93L945.66,417.37z M944.09,482.79l-31.93,31.93&#10;&#9;&#9;&#9;&#9;l-31.93-31.93l31.93-31.93L944.09,482.79z M878.67,417.37l31.93,31.93l-31.93,31.93l-31.93-31.93L878.67,417.37z M877.1,482.79&#10;&#9;&#9;&#9;&#9;l-31.93,31.93l-31.93-31.93l31.93-31.93L877.1,482.79z M811.68,417.37l31.93,31.93l-31.93,31.93l-31.93-31.93L811.68,417.37z&#10;&#9;&#9;&#9;&#9; M810.11,482.79l-31.93,31.93l-31.93-31.93l31.93-31.93L810.11,482.79z M744.69,417.37l31.93,31.93l-31.93,31.93l-31.93-31.93&#10;&#9;&#9;&#9;&#9;L744.69,417.37z M743.12,482.79l-31.93,31.93l-31.93-31.93l31.93-31.93L743.12,482.79z M677.7,417.37l31.93,31.93l-31.93,31.93&#10;&#9;&#9;&#9;&#9;l-31.93-31.93L677.7,417.37z M676.14,482.79l-31.93,31.93l-31.93-31.93l31.93-31.93L676.14,482.79z M610.72,417.37l31.93,31.93&#10;&#9;&#9;&#9;&#9;l-31.93,31.93l-31.93-31.93L610.72,417.37z M609.15,482.79l-31.93,31.93l-31.93-31.93l31.93-31.93L609.15,482.79z M543.73,417.37&#10;&#9;&#9;&#9;&#9;l31.93,31.93l-31.93,31.93l-31.93-31.93L543.73,417.37z M542.16,482.79l-31.93,31.93l-31.93-31.93l31.93-31.93L542.16,482.79z&#10;&#9;&#9;&#9;&#9; M476.74,417.37l31.93,31.93l-31.93,31.93l-31.93-31.93L476.74,417.37z M475.17,482.79l-31.93,31.93l-31.93-31.93l31.93-31.93&#10;&#9;&#9;&#9;&#9;L475.17,482.79z M409.75,417.37l31.93,31.93l-31.93,31.93l-31.93-31.93L409.75,417.37z M408.18,482.79l-31.93,31.93l-31.93-31.93&#10;&#9;&#9;&#9;&#9;l31.93-31.93L408.18,482.79z M342.76,417.37l31.93,31.93l-31.93,31.93l-31.93-31.93L342.76,417.37z M341.19,482.79l-31.93,31.93&#10;&#9;&#9;&#9;&#9;l-31.93-31.93l31.93-31.93L341.19,482.79z M275.77,417.37l31.93,31.93l-31.93,31.93l-31.93-31.93L275.77,417.37z M274.2,482.79&#10;&#9;&#9;&#9;&#9;l-31.93,31.93l-31.93-31.93l31.93-31.93L274.2,482.79z M208.78,417.37l31.93,31.93l-31.93,31.93l-31.93-31.93L208.78,417.37z&#10;&#9;&#9;&#9;&#9; M143.36,482.79l31.93-31.93l31.93,31.93l-31.93,31.93L143.36,482.79z M143.36,549.78l31.93-31.93l31.93,31.93l-31.93,31.93&#10;&#9;&#9;&#9;&#9;L143.36,549.78z M143.36,616.77l31.93-31.93l31.93,31.93l-31.93,31.93L143.36,616.77z M143.36,683.76l31.93-31.93l31.93,31.93&#10;&#9;&#9;&#9;&#9;l-31.93,31.93L143.36,683.76z M143.36,750.75l31.93-31.93l31.93,31.93l-31.93,31.93L143.36,750.75z M143.36,817.74l31.93-31.93&#10;&#9;&#9;&#9;&#9;l31.93,31.93l-31.93,31.93L143.36,817.74z M143.36,884.73l31.93-31.93l31.93,31.93l-31.93,31.93L143.36,884.73z M208.78,950.15&#10;&#9;&#9;&#9;&#9;l-31.93-31.93l31.93-31.93l31.93,31.93L208.78,950.15z M210.35,884.73l31.93-31.93l31.93,31.93l-31.93,31.93L210.35,884.73z&#10;&#9;&#9;&#9;&#9; M275.77,950.15l-31.93-31.93l31.93-31.93l31.93,31.93L275.77,950.15z M277.34,884.73l31.93-31.93l31.93,31.93l-31.93,31.93&#10;&#9;&#9;&#9;&#9;L277.34,884.73z M342.76,950.15l-31.93-31.93l31.93-31.93l31.93,31.93L342.76,950.15z M344.33,884.73l31.93-31.93l31.93,31.93&#10;&#9;&#9;&#9;&#9;l-31.93,31.93L344.33,884.73z M409.75,950.15l-31.93-31.93l31.93-31.93l31.93,31.93L409.75,950.15z M411.32,884.73l31.93-31.93&#10;&#9;&#9;&#9;&#9;l31.93,31.93l-31.93,31.93L411.32,884.73z M476.74,950.15l-31.93-31.93l31.93-31.93l31.93,31.93L476.74,950.15z M478.3,884.73&#10;&#9;&#9;&#9;&#9;l31.93-31.93l31.93,31.93l-31.93,31.93L478.3,884.73z M543.73,950.15l-31.93-31.93l31.93-31.93l31.93,31.93L543.73,950.15z&#10;&#9;&#9;&#9;&#9; M545.29,884.73l31.93-31.93l31.93,31.93l-31.93,31.93L545.29,884.73z M610.72,950.15l-31.93-31.93l31.93-31.93l31.93,31.93&#10;&#9;&#9;&#9;&#9;L610.72,950.15z M612.28,884.73l31.93-31.93l31.93,31.93l-31.93,31.93L612.28,884.73z M677.7,950.15l-31.93-31.93l31.93-31.93&#10;&#9;&#9;&#9;&#9;l31.93,31.93L677.7,950.15z M679.27,884.73l31.93-31.93l31.93,31.93l-31.93,31.93L679.27,884.73z M744.69,950.15l-31.93-31.93&#10;&#9;&#9;&#9;&#9;l31.93-31.93l31.93,31.93L744.69,950.15z M746.26,884.73l31.93-31.93l31.93,31.93l-31.93,31.93L746.26,884.73z M811.68,950.15&#10;&#9;&#9;&#9;&#9;l-31.93-31.93l31.93-31.93l31.93,31.93L811.68,950.15z M813.25,884.73l31.93-31.93l31.93,31.93l-31.93,31.93L813.25,884.73z&#10;&#9;&#9;&#9;&#9; M878.67,950.15l-31.93-31.93l31.93-31.93l31.93,31.93L878.67,950.15z M880.24,884.73l31.93-31.93l31.93,31.93l-31.93,31.93&#10;&#9;&#9;&#9;&#9;L880.24,884.73z M945.66,950.15l-31.93-31.93l31.93-31.93l31.93,31.93L945.66,950.15z M947.23,884.73l31.93-31.93l31.93,31.93&#10;&#9;&#9;&#9;&#9;l-31.93,31.93L947.23,884.73z M1012.65,950.15l-31.93-31.93l31.93-31.93l31.93,31.93L1012.65,950.15z M1014.22,884.73&#10;&#9;&#9;&#9;&#9;l31.93-31.93l31.93,31.93l-31.93,31.93L1014.22,884.73z M1079.64,950.15l-31.93-31.93l31.93-31.93l31.93,31.93L1079.64,950.15z&#10;&#9;&#9;&#9;&#9; M1081.21,884.73l31.93-31.93l31.93,31.93l-31.93,31.93L1081.21,884.73z M1146.63,950.15l-31.93-31.93l31.93-31.93l31.93,31.93&#10;&#9;&#9;&#9;&#9;L1146.63,950.15z M1148.2,884.73l31.93-31.93l31.93,31.93l-31.93,31.93L1148.2,884.73z M1213.62,950.15l-31.93-31.93l31.93-31.93&#10;&#9;&#9;&#9;&#9;l31.93,31.93L1213.62,950.15z M1279.04,884.73l-31.93,31.93l-31.93-31.93l31.93-31.93L1279.04,884.73z M1279.04,817.74&#10;&#9;&#9;&#9;&#9;l-31.93,31.93l-31.93-31.93l31.93-31.93L1279.04,817.74z M1279.04,750.75l-31.93,31.93l-31.93-31.93l31.93-31.93L1279.04,750.75z&#10;&#9;&#9;&#9;&#9; M1279.04,683.76l-31.93,31.93l-31.93-31.93l31.93-31.93L1279.04,683.76z M1279.04,616.77l-31.93,31.93l-31.93-31.93l31.93-31.93&#10;&#9;&#9;&#9;&#9;L1279.04,616.77z M1279.04,549.78l-31.93,31.93l-31.93-31.93l31.93-31.93L1279.04,549.78z M1279.04,482.79l-31.93,31.93&#10;&#9;&#9;&#9;&#9;l-31.93-31.93l31.93-31.93L1279.04,482.79z" style="fill: rgb(218, 232, 247);" transform="matrix(0.9999999999999999, 0, 0, 0.9999999999999999, 31.348315530496905, 3.033707954567035)"/><path class="st7" d="M1276.54,994.89L1276.54,994.89c-16.11,0-29.17-13.06-29.17-29.17V408.64H152.62v557.08&#10;&#9;&#9;&#9;&#9;&#9;c0,16.11-13.06,29.17-29.17,29.17h0c-16.11,0-29.17-13.06-29.17-29.17V408.64c0-32.22,26.12-58.33,58.33-58.33h1094.76&#10;&#9;&#9;&#9;&#9;&#9;c32.22,0,58.33,26.12,58.33,58.33v557.08C1305.71,981.83,1292.65,994.89,1276.54,994.89z" style="fill: rgb(255, 255, 255);" transform="matrix(1, 0, 0, 1, 0, 3.637978807091713e-12)"/><defs>
			<path d="M 243.349995 479.089996 A 36.200001 36.200001 0 0 1 207.149994 515.289997 A 36.200001 36.200001 0 0 1 170.949993 479.089996 A 36.200001 36.200001 0 0 1 207.149994 442.889996 A 36.200001 36.200001 0 0 1 243.349995 479.089996 Z" id="SVGID_4_"/>
		</defs><clipPath id="SVGID_5_">
			<use style="overflow:visible;" xlink:href="#SVGID_4_"/>
		</clipPath><g transform="matrix(1, 0, 0, 1, 0, 2.7284841053187847e-12)" style="clip-path: url('#SVGID_5_');">
				<path class="st7" d="M185.98,445.84c0.7-4.43,1.53-8.87,2.51-13.3c-2.62-1.71-4.97-3.23-6.98-4.49&#10;&#9;&#9;&#9;&#9;&#9;c-3.69,2.99-7.6,6.01-11.68,9.02c-1.95,4-3.62,8-5.01,12.01c2.83,1.28,5.91,2.8,9.18,4.49&#10;&#9;&#9;&#9;&#9;&#9;C178.09,451.01,182.1,448.41,185.98,445.84z" style="fill: rgb(255, 255, 255);"/>
				<path class="st9" d="M173.9,453.99c-3.39-1.76-6.59-3.33-9.52-4.65c1.44-4.13,3.18-8.25,5.22-12.38&#10;&#9;&#9;&#9;&#9;&#9;c4.23-3.12,8.27-6.25,12.07-9.35c2.06,1.3,4.47,2.87,7.18,4.65c-1,4.59-1.84,9.17-2.55,13.76&#10;&#9;&#9;&#9;&#9;&#9;C182.3,448.68,178.14,451.36,173.9,453.99z M165.23,448.8c2.73,1.25,5.69,2.71,8.84,4.34c3.96-2.48,7.84-4.99,11.59-7.49&#10;&#9;&#9;&#9;&#9;&#9;c0.69-4.28,1.51-8.56,2.46-12.84c-2.54-1.65-4.82-3.11-6.79-4.34c-3.57,2.88-7.36,5.8-11.3,8.69&#10;&#9;&#9;&#9;&#9;&#9;C168.18,441.04,166.58,444.92,165.23,448.8z" style="fill: rgb(56, 61, 71);"/>
			</g><path class="st7" d="M249.5,449.07c-1.39-4-3.06-8-5.01-12.01c-4.09-3.01-8-6.03-11.68-9.02c-2.01,1.26-4.36,2.78-6.98,4.49&#10;&#9;&#9;&#9;&#9;&#9;c0.97,4.43,1.81,8.87,2.51,13.3c3.88,2.58,7.89,5.17,12,7.73C243.59,451.87,246.67,450.35,249.5,449.07z" style="fill: rgb(255, 255, 255); clip-path: url('#SVGID_5_');" transform="matrix(1, 0, 0, 1, 0, 3.637978807091713e-12)"/><path class="st9" d="M240.41,453.99c-4.24-2.64-8.4-5.31-12.4-7.97c-0.7-4.59-1.55-9.17-2.55-13.76&#10;&#9;&#9;&#9;&#9;&#9;c2.71-1.78,5.12-3.35,7.18-4.65c3.8,3.1,7.84,6.23,12.07,9.35c2.04,4.13,3.78,8.25,5.22,12.38&#10;&#9;&#9;&#9;&#9;&#9;C246.99,450.66,243.8,452.23,240.41,453.99z M228.65,445.65c3.75,2.5,7.63,5.01,11.59,7.49c3.14-1.63,6.1-3.1,8.84-4.34&#10;&#9;&#9;&#9;&#9;&#9;c-1.34-3.88-2.94-7.75-4.8-11.63c-3.94-2.9-7.73-5.81-11.3-8.69c-1.97,1.23-4.25,2.69-6.79,4.34&#10;&#9;&#9;&#9;&#9;&#9;C227.14,437.09,227.96,441.37,228.65,445.65z" style="fill: rgb(56, 61, 71); clip-path: url('#SVGID_5_');" transform="matrix(1, 0, 0, 1, 0, 3.637978807091713e-12)"/><path class="st7" d="M188.49,525.64c-0.97-4.43-1.81-8.87-2.51-13.3c-3.88-2.58-7.89-5.17-12-7.73&#10;&#9;&#9;&#9;&#9;&#9;c-3.27,1.7-6.34,3.21-9.18,4.49c1.39,4,3.06,8,5.01,12.01c4.09,3.01,8,6.03,11.68,9.02&#10;&#9;&#9;&#9;&#9;&#9;C183.52,528.87,185.86,527.35,188.49,525.64z" style="fill: rgb(255, 255, 255); clip-path: url('#SVGID_5_');" transform="matrix(1, 0, 0, 1, 0, 3.637978807091713e-12)"/><path class="st9" d="M181.67,530.56c-3.8-3.1-7.84-6.23-12.07-9.35c-2.04-4.13-3.78-8.25-5.22-12.38&#10;&#9;&#9;&#9;&#9;&#9;c2.93-1.32,6.13-2.89,9.52-4.65c4.24,2.64,8.4,5.31,12.4,7.97c0.7,4.59,1.55,9.17,2.55,13.76&#10;&#9;&#9;&#9;&#9;&#9;C186.14,527.69,183.73,529.26,181.67,530.56z M170.04,521.01c3.94,2.9,7.73,5.81,11.3,8.69c1.97-1.23,4.25-2.69,6.79-4.34&#10;&#9;&#9;&#9;&#9;&#9;c-0.95-4.28-1.77-8.56-2.46-12.84c-3.75-2.5-7.63-5.01-11.59-7.49c-3.14,1.63-6.1,3.09-8.84,4.34&#10;&#9;&#9;&#9;&#9;&#9;C166.58,513.26,168.18,517.14,170.04,521.01z" style="fill: rgb(56, 61, 71); clip-path: url('#SVGID_5_');" transform="matrix(1, 0, 0, 1, 0, 3.637978807091713e-12)"/><path class="st7" d="M244.49,521.11c1.95-4,3.62-8,5.01-12.01c-2.83-1.28-5.91-2.8-9.18-4.49c-4.1,2.56-8.12,5.15-12,7.73&#10;&#9;&#9;&#9;&#9;&#9;c-0.7,4.43-1.53,8.87-2.51,13.3c2.62,1.71,4.97,3.23,6.98,4.49C236.49,527.15,240.4,524.12,244.49,521.11z" style="fill: rgb(255, 255, 255); clip-path: url('#SVGID_5_');" transform="matrix(1, 0, 0, 1, 0, 3.637978807091713e-12)"/><path class="st9" d="M232.64,530.56c-2.06-1.3-4.47-2.87-7.18-4.65c1-4.59,1.84-9.17,2.55-13.76c4-2.66,8.16-5.33,12.4-7.97&#10;&#9;&#9;&#9;&#9;&#9;c3.39,1.76,6.59,3.33,9.52,4.65c-1.44,4.13-3.18,8.25-5.22,12.38C240.48,524.33,236.43,527.47,232.64,530.56z M226.19,525.37&#10;&#9;&#9;&#9;&#9;&#9;c2.54,1.65,4.82,3.11,6.79,4.34c3.57-2.88,7.35-5.8,11.3-8.69c1.86-3.88,3.46-7.75,4.8-11.63c-2.73-1.25-5.69-2.71-8.84-4.34&#10;&#9;&#9;&#9;&#9;&#9;c-3.96,2.48-7.84,4.99-11.59,7.49C227.96,516.81,227.14,521.09,226.19,525.37z" style="fill: rgb(56, 61, 71); clip-path: url('#SVGID_5_');" transform="matrix(1, 0, 0, 1, 0, 3.637978807091713e-12)"/><path class="st7" d="M172.11,466.33c0.42-4.25,1.04-8.51,1.88-12.76c-3.27-1.7-6.34-3.21-9.18-4.49&#10;&#9;&#9;&#9;&#9;&#9;c-4.22,2.72-8.55,5.39-12.94,7.94c-1.39,3.68-2.44,7.36-3.13,11.04c3.55,1.48,7.25,3.18,11.06,5.03&#10;&#9;&#9;&#9;&#9;&#9;C163.88,470.94,168,468.67,172.11,466.33z" style="fill: rgb(255, 255, 255); clip-path: url('#SVGID_5_');" transform="matrix(1, 0, 0, 1, 0, 3.637978807091713e-12)"/><path class="st9" d="M159.77,473.49c-3.95-1.93-7.79-3.69-11.46-5.22c0.71-3.79,1.8-7.58,3.26-11.37&#10;&#9;&#9;&#9;&#9;&#9;c4.53-2.65,9.01-5.41,13.38-8.23c2.91,1.32,6.08,2.88,9.45,4.64c-0.86,4.4-1.5,8.81-1.92,13.21&#10;&#9;&#9;&#9;&#9;&#9;C168.24,468.94,163.98,471.28,159.77,473.49z M149.17,467.83c3.42,1.43,6.99,3.07,10.66,4.85c3.96-2.08,7.94-4.28,11.91-6.55&#10;&#9;&#9;&#9;&#9;&#9;c0.41-4.1,1.03-8.21,1.84-12.31c-3.16-1.63-6.14-3.1-8.9-4.35c-4.09,2.62-8.27,5.19-12.49,7.65&#10;&#9;&#9;&#9;&#9;&#9;C150.85,460.69,149.85,464.26,149.17,467.83z" style="fill: rgb(56, 61, 71); clip-path: url('#SVGID_5_');" transform="matrix(1, 0, 0, 1, 0, 3.637978807091713e-12)"/><path class="st7" d="M265.57,468.05c-0.7-3.68-1.74-7.36-3.13-11.04c-4.38-2.56-8.71-5.22-12.94-7.94&#10;&#9;&#9;&#9;&#9;&#9;c-2.83,1.28-5.91,2.8-9.18,4.49c0.84,4.25,1.46,8.51,1.88,12.76c4.1,2.34,8.22,4.61,12.31,6.76&#10;&#9;&#9;&#9;&#9;&#9;C258.32,471.23,262.02,469.53,265.57,468.05z" style="fill: rgb(255, 255, 255); clip-path: url('#SVGID_5_');" transform="matrix(1, 0, 0, 1, 0, 3.637978807091713e-12)"/><path class="st9" d="M254.54,473.49c-4.22-2.21-8.47-4.55-12.71-6.97c-0.42-4.4-1.06-8.81-1.92-13.21&#10;&#9;&#9;&#9;&#9;&#9;c3.37-1.76,6.54-3.32,9.45-4.64c4.36,2.82,8.84,5.59,13.38,8.23c1.46,3.79,2.55,7.58,3.26,11.37&#10;&#9;&#9;&#9;&#9;&#9;C262.33,469.8,258.49,471.56,254.54,473.49z M242.57,466.13c3.97,2.27,7.95,4.46,11.91,6.55c3.67-1.79,7.24-3.42,10.66-4.85&#10;&#9;&#9;&#9;&#9;&#9;c-0.68-3.57-1.68-7.13-3.01-10.7c-4.23-2.47-8.41-5.04-12.5-7.65c-2.76,1.25-5.74,2.71-8.9,4.35&#10;&#9;&#9;&#9;&#9;&#9;C241.55,457.93,242.16,462.03,242.57,466.13z" style="fill: rgb(56, 61, 71); clip-path: url('#SVGID_5_');" transform="matrix(1, 0, 0, 1, 0, 3.637978807091713e-12)"/><path class="st7" d="M159.8,485.09c-0.28-4-0.28-8,0-12.01c-3.81-1.86-7.51-3.55-11.06-5.03c-4.24,2.2-8.47,4.25-12.62,6.11&#10;&#9;&#9;&#9;&#9;&#9;c-0.42,3.28-0.42,6.57,0,9.85c4.16,1.86,8.38,3.91,12.62,6.11C152.29,488.65,155.99,486.95,159.8,485.09z" style="fill: rgb(255, 255, 255); clip-path: url('#SVGID_5_');" transform="matrix(1, 0, 0, 1, 0, 3.637978807091713e-12)"/><path class="st9" d="M148.81,490.5c-4.39-2.29-8.77-4.42-13.07-6.34c-0.45-3.38-0.45-6.76,0-10.14&#10;&#9;&#9;&#9;&#9;&#9;c4.3-1.92,8.68-4.05,13.07-6.34c3.65,1.52,7.47,3.27,11.4,5.19c-0.29,4.15-0.29,8.29,0,12.44&#10;&#9;&#9;&#9;&#9;&#9;C156.28,487.23,152.46,488.98,148.81,490.5z M136.49,483.87c4.01,1.79,8.08,3.77,12.18,5.89c3.44-1.44,7.03-3.08,10.71-4.88&#10;&#9;&#9;&#9;&#9;&#9;c-0.26-3.86-0.26-7.72,0-11.58c-3.68-1.79-7.27-3.44-10.71-4.88c-4.09,2.11-8.17,4.09-12.18,5.89&#10;&#9;&#9;&#9;&#9;&#9;C136.11,477.49,136.11,480.68,136.49,483.87z" style="fill: rgb(56, 61, 71); clip-path: url('#SVGID_5_');" transform="matrix(1, 0, 0, 1, 0, 3.637978807091713e-12)"/><path class="st7" d="M278.19,484.01c0.42-3.28,0.42-6.57,0-9.85c-4.16-1.86-8.38-3.91-12.62-6.11&#10;&#9;&#9;&#9;&#9;&#9;c-3.55,1.48-7.25,3.18-11.06,5.03c0.28,4,0.28,8,0,12.01c3.81,1.86,7.51,3.55,11.06,5.03&#10;&#9;&#9;&#9;&#9;&#9;C269.81,487.93,274.04,485.87,278.19,484.01z" style="fill: rgb(255, 255, 255); clip-path: url('#SVGID_5_');" transform="matrix(1, 0, 0, 1, 0, 3.637978807091713e-12)"/><path class="st9" d="M265.5,490.5c-3.65-1.52-7.47-3.27-11.4-5.19c0.3-4.15,0.3-8.29,0-12.44c3.93-1.92,7.75-3.67,11.4-5.19&#10;&#9;&#9;&#9;&#9;&#9;c4.39,2.29,8.77,4.42,13.07,6.34c0.45,3.38,0.45,6.76,0,10.14C274.27,486.08,269.89,488.21,265.5,490.5z M254.92,484.88&#10;&#9;&#9;&#9;&#9;&#9;c3.68,1.79,7.27,3.44,10.71,4.88c4.09-2.11,8.17-4.09,12.18-5.89c0.39-3.19,0.39-6.38,0-9.56c-4.01-1.79-8.08-3.77-12.18-5.89&#10;&#9;&#9;&#9;&#9;&#9;c-3.44,1.44-7.03,3.08-10.71,4.88C255.19,477.16,255.19,481.02,254.92,484.88z" style="fill: rgb(56, 61, 71); clip-path: url('#SVGID_5_');" transform="matrix(1, 0, 0, 1, 0, 3.637978807091713e-12)"/><path class="st9" d="M173.98,504.61c-0.84-4.25-1.46-8.51-1.88-12.76c-4.1-2.34-8.22-4.61-12.31-6.76&#10;&#9;&#9;&#9;&#9;&#9;c-3.81,1.86-7.51,3.55-11.06,5.03c0.7,3.68,1.74,7.36,3.13,11.04c4.38,2.56,8.71,5.22,12.94,7.94&#10;&#9;&#9;&#9;&#9;&#9;C167.64,507.82,170.72,506.31,173.98,504.61z" style="fill: rgb(56, 61, 71); clip-path: url('#SVGID_5_');" transform="matrix(1, 0, 0, 1, 0, 3.637978807091713e-12)"/><path class="st9" d="M164.95,509.51c-4.36-2.82-8.84-5.59-13.38-8.23c-1.46-3.79-2.55-7.58-3.26-11.37&#10;&#9;&#9;&#9;&#9;&#9;c3.67-1.53,7.51-3.29,11.46-5.22c4.22,2.21,8.47,4.55,12.71,6.97c0.42,4.4,1.06,8.81,1.92,13.21&#10;&#9;&#9;&#9;&#9;&#9;C171.02,506.63,167.86,508.19,164.95,509.51z M152.17,501.05c4.23,2.47,8.41,5.03,12.49,7.65c2.76-1.25,5.74-2.71,8.9-4.35&#10;&#9;&#9;&#9;&#9;&#9;c-0.81-4.1-1.42-8.21-1.84-12.31c-3.97-2.27-7.95-4.46-11.91-6.55c-3.67,1.79-7.24,3.42-10.66,4.85&#10;&#9;&#9;&#9;&#9;&#9;C149.85,493.91,150.85,497.48,152.17,501.05z" style="fill: rgb(56, 61, 71); clip-path: url('#SVGID_5_');" transform="matrix(1, 0, 0, 1, 0, 3.637978807091713e-12)"/><path class="st9" d="M262.44,501.16c1.39-3.68,2.44-7.36,3.13-11.04c-3.55-1.48-7.25-3.18-11.06-5.03&#10;&#9;&#9;&#9;&#9;&#9;c-4.09,2.14-8.21,4.42-12.31,6.76c-0.42,4.25-1.04,8.51-1.88,12.76c3.27,1.7,6.34,3.21,9.18,4.49&#10;&#9;&#9;&#9;&#9;&#9;C253.73,506.39,258.06,503.72,262.44,501.16z" style="fill: rgb(56, 61, 71); clip-path: url('#SVGID_5_');" transform="matrix(1, 0, 0, 1, 0, 3.637978807091713e-12)"/><path class="st9" d="M249.36,509.51c-2.91-1.32-6.07-2.88-9.45-4.64c0.86-4.4,1.5-8.81,1.92-13.21&#10;&#9;&#9;&#9;&#9;&#9;c4.24-2.42,8.49-4.76,12.71-6.97c3.95,1.93,7.79,3.69,11.46,5.22c-0.71,3.79-1.8,7.58-3.26,11.37&#10;&#9;&#9;&#9;&#9;&#9;C258.2,503.92,253.72,506.69,249.36,509.51z M240.74,504.35c3.16,1.63,6.14,3.1,8.9,4.35c4.09-2.62,8.27-5.19,12.49-7.65&#10;&#9;&#9;&#9;&#9;&#9;c1.33-3.57,2.33-7.13,3.01-10.7c-3.42-1.43-6.99-3.07-10.66-4.85c-3.96,2.08-7.94,4.28-11.91,6.55&#10;&#9;&#9;&#9;&#9;&#9;C242.16,496.15,241.55,500.25,240.74,504.35z" style="fill: rgb(56, 61, 71); clip-path: url('#SVGID_5_');" transform="matrix(1, 0, 0, 1, 0, 3.637978807091713e-12)"/><g transform="matrix(1, 0, 0, 1, 0, 1.8189894035458565e-12)">
			<path class="st9" d="M983.51,675.42c1.85-1.35,6.45-3.96,9.09-3.59c2.64,0.37,25.51,19.85,30.14,23.58&#10;&#9;&#9;&#9;&#9;c4.63,3.73,0.52,7.11-6.94,3.81c-7.46-3.3-24.98-10.8-29.51-12.8C981.77,684.41,983.51,675.42,983.51,675.42z" style="fill: rgb(56, 61, 71);"/>
			<g>
				<path class="st9" d="M995.48,676.01c-0.3,0-0.6-0.11-0.82-0.34c-0.46-0.46-0.46-1.19,0-1.65l1.46-1.46&#10;&#9;&#9;&#9;&#9;&#9;c0.46-0.46,1.19-0.46,1.65,0c0.46,0.46,0.46,1.19,0,1.65l-1.46,1.46C996.07,675.9,995.78,676.01,995.48,676.01z" style="fill: rgb(56, 61, 71);"/>
			</g>
			<g>
				<path class="st9" d="M998.64,678.45c-0.3,0-0.6-0.11-0.82-0.34c-0.46-0.46-0.46-1.19,0-1.65l1.46-1.46&#10;&#9;&#9;&#9;&#9;&#9;c0.46-0.46,1.19-0.46,1.65,0c0.46,0.46,0.46,1.19,0,1.65l-1.46,1.46C999.24,678.33,998.94,678.45,998.64,678.45z" style="fill: rgb(56, 61, 71);"/>
			</g>
			<g>
				<path class="st9" d="M1007.9,685.66c-0.3,0-0.6-0.11-0.82-0.34c-0.46-0.46-0.46-1.19,0-1.65l1.46-1.46&#10;&#9;&#9;&#9;&#9;&#9;c0.46-0.46,1.19-0.46,1.65,0c0.46,0.46,0.46,1.19,0,1.65l-1.46,1.46C1008.5,685.54,1008.2,685.66,1007.9,685.66z" style="fill: rgb(56, 61, 71);"/>
			</g>
			<g>
				<path class="st9" d="M1012.73,689.76c-0.3,0-0.6-0.11-0.82-0.34c-0.46-0.46-0.46-1.19,0-1.65l1.46-1.46&#10;&#9;&#9;&#9;&#9;&#9;c0.46-0.46,1.19-0.46,1.65,0c0.46,0.46,0.46,1.19,0,1.65l-1.46,1.46C1013.33,689.65,1013.03,689.76,1012.73,689.76z" style="fill: rgb(56, 61, 71);"/>
			</g>
			<g>
				<path class="st9" d="M1017.19,693.45c-0.3,0-0.6-0.11-0.82-0.34c-0.46-0.46-0.46-1.19,0-1.65l1.46-1.46&#10;&#9;&#9;&#9;&#9;&#9;c0.46-0.46,1.19-0.46,1.65,0c0.46,0.46,0.46,1.19,0,1.65l-1.46,1.46C1017.78,693.34,1017.49,693.45,1017.19,693.45z" style="fill: rgb(56, 61, 71);"/>
			</g>
		</g><path class="st9" d="M973.6,832.06c2.15-0.79,7.29-2.04,9.73-0.96c2.44,1.08,19.07,26.09,22.5,30.95&#10;&#9;&#9;&#9;&#9;c3.43,4.86-1.45,6.97-7.72,1.75c-6.27-5.22-21.66-16.6-25.47-19.77C968.85,840.88,973.6,832.06,973.6,832.06z" style="fill: rgb(56, 61, 71);" transform="matrix(1, 0, 0, 1, 0, 2.7284841053187847e-12)"/><path class="st9" d="M985.41,836.16c-0.29-0.08-0.54-0.27-0.7-0.55c-0.32-0.56-0.12-1.27,0.44-1.59l1.8-1.01&#10;&#9;&#9;&#9;&#9;&#9;c0.56-0.32,1.27-0.12,1.59,0.44c0.32,0.56,0.12,1.27-0.44,1.59l-1.8,1.01C986.01,836.21,985.69,836.24,985.41,836.16z" style="fill: rgb(56, 61, 71);" transform="matrix(1, 0, 0, 1, 0, 3.637978807091713e-12)"/><path class="st9" d="M987.8,839.36c-0.29-0.08-0.54-0.27-0.7-0.55c-0.32-0.56-0.12-1.27,0.44-1.59l1.8-1.01&#10;&#9;&#9;&#9;&#9;&#9;c0.56-0.32,1.27-0.12,1.59,0.44c0.32,0.56,0.12,1.27-0.44,1.59l-1.8,1.01C988.41,839.41,988.09,839.44,987.8,839.36z" style="fill: rgb(56, 61, 71);" transform="matrix(1, 0, 0, 1, 0, 3.637978807091713e-12)"/><path class="st9" d="M994.78,848.79c-0.29-0.08-0.54-0.27-0.7-0.55c-0.32-0.56-0.12-1.27,0.44-1.59l1.8-1.01&#10;&#9;&#9;&#9;&#9;&#9;c0.56-0.32,1.27-0.12,1.59,0.44c0.32,0.56,0.12,1.27-0.44,1.59l-1.8,1.01C995.39,848.84,995.07,848.87,994.78,848.79z" style="fill: rgb(56, 61, 71);" transform="matrix(1, 0, 0, 1, 0, 3.637978807091713e-12)"/><path class="st9" d="M998.33,854.04c-0.29-0.08-0.54-0.27-0.7-0.55c-0.32-0.56-0.12-1.27,0.44-1.59l1.8-1.01&#10;&#9;&#9;&#9;&#9;&#9;c0.56-0.32,1.27-0.12,1.59,0.44s0.12,1.27-0.44,1.59l-1.8,1.01C998.94,854.09,998.62,854.12,998.33,854.04z" style="fill: rgb(56, 61, 71);" transform="matrix(1, 0, 0, 1, 0, 3.637978807091713e-12)"/><path class="st9" d="M1001.63,858.79c-0.29-0.08-0.54-0.27-0.7-0.55c-0.32-0.56-0.12-1.27,0.44-1.59l1.8-1.01&#10;&#9;&#9;&#9;&#9;&#9;c0.56-0.32,1.27-0.12,1.59,0.44c0.32,0.56,0.12,1.27-0.44,1.59l-1.8,1.01C1002.24,858.84,1001.92,858.87,1001.63,858.79z" style="fill: rgb(56, 61, 71);" transform="matrix(1, 0, 0, 1, 0, 3.637978807091713e-12)"/><path class="st10" d="M784.77,718.15c40.03,39.67,123.22,92.17,188.84,113.91c0,0,0,6.5-0.96,11.98&#10;&#9;&#9;&#9;c-10.27-1.79-258.97-53.93-303.71-91.21c4.95-9.34,71.16-134.26,84.71-159.83c49.82,41.51,122.47,102.21,132.88,104.02&#10;&#9;&#9;&#9;c10.43,1.8,96.97-21.61,96.97-21.61c2.57,4.49,2.79,10.99,2.79,10.99c-24.63,18.86-89.54,43.99-112.62,43.69&#10;&#9;&#9;&#9;C861.85,729.95,822.85,725.18,784.77,718.15z" style="fill: rgb(44, 107, 105);" transform="matrix(1, 0, 0, 1, 0, 1.8189894035458565e-12)"/><path class="st11" d="M739.67,683.76c22.84-38.65,25.46-77.79,100.98-19.25c-26.77-21.28-60.18-49.17-86.99-71.51&#10;&#9;&#9;&#9;&#9;c-11.25,21.22-58.75,110.85-77.42,146.08C707.44,726.42,730.74,698.86,739.67,683.76z" style="fill: rgb(26, 91, 88);" transform="matrix(1, 0, 0, 1, 0, 2.7284841053187847e-12)"/><path class="st11" d="M743.49,612.18c0.58-1.09,1.13-2.14,1.68-3.17C744.62,610.04,744.06,611.1,743.49,612.18z" style="fill: rgb(26, 91, 88);" transform="matrix(1, 0, 0, 1, 0, 2.7284841053187847e-12)"/><path class="st11" d="M773.8,636.12c12.95-4.74,32.24,1.57,66.84,28.39c-26.77-21.28-60.18-49.17-86.99-71.51&#10;&#9;&#9;&#9;&#9;c-1.87,3.53-4.75,8.97-8.33,15.73C753.74,617.83,763.45,627.1,773.8,636.12z" style="fill: rgb(26, 91, 88);" transform="matrix(1, 0, 0, 1, 0, 2.7284841053187847e-12)"/><path class="st11" d="M759.19,648.62c2.51-3.58,5.2-6.64,8.26-8.97c-9.58-8.04-18.43-16.08-25.96-23.69&#10;&#9;&#9;&#9;&#9;c0.16-0.29,0.3-0.57,0.45-0.85c-1.91,3.61-3.97,7.49-6.13,11.57c0.22-0.41,0.44-0.84,0.66-1.25&#10;&#9;&#9;&#9;&#9;C742.64,633.27,750.41,641.07,759.19,648.62z" style="fill: rgb(26, 91, 88);" transform="matrix(1, 0, 0, 1, 0, 2.7284841053187847e-12)"/><path class="st11" d="M732.4,633.11c-18.76,35.39-43.8,82.63-56.17,105.98c31.21-12.66,54.51-40.23,63.44-55.33&#10;&#9;&#9;&#9;&#9;c6.04-10.22,10.67-20.48,15.6-28.95C746.69,647.83,738.91,640.55,732.4,633.11z" style="fill: rgb(26, 91, 88);" transform="matrix(1, 0, 0, 1, 0, 2.7284841053187847e-12)"/><path class="st12" d="M985.72,681.84c-21.32,7.89-42.73,15.57-64.31,22.65c-33.76,10.99-35.28,10.59-48.92,6.7&#10;&#9;&#9;&#9;&#9;c-32.52-9.28-80.2-34.11-113.3-62.56c-1.35,1.92-2.65,3.99-3.92,6.19c35.14,28.57,83.92,51.96,116.16,60.32&#10;&#9;&#9;&#9;&#9;c14.8,3.84,16.88,4.05,50.91-7.96c21.39-7.6,42.54-15.77,63.61-24.15C985.87,682.64,985.81,682.25,985.72,681.84z" style="fill: rgb(217, 221, 122);" transform="matrix(1, 0, 0, 1, 0, 2.7284841053187847e-12)"/><path class="st12" d="M732.4,633.11L732.4,633.11c1.16-2.19,2.3-4.33,3.4-6.42C734.69,628.78,733.56,630.91,732.4,633.11z" style="fill: rgb(217, 221, 122);" transform="matrix(1, 0, 0, 1, 0, 2.7284841053187847e-12)"/><path class="st13" d="M736.46,625.44c-0.22,0.41-0.44,0.83-0.66,1.25c-1.11,2.09-2.24,4.24-3.4,6.42&#10;&#9;&#9;&#9;&#9;c6.51,7.45,14.29,14.73,22.87,21.7c1.28-2.19,2.58-4.26,3.92-6.19C750.41,641.07,742.64,633.27,736.46,625.44z" style="fill: rgb(196, 174, 48);" transform="matrix(1, 0, 0, 1, 0, 2.7284841053187847e-12)"/><path class="st12" d="M741.94,615.11c0.53-1,1.04-1.97,1.55-2.93C742.98,613.13,742.46,614.12,741.94,615.11z" style="fill: rgb(217, 221, 122);" transform="matrix(1, 0, 0, 1, 0, 2.7284841053187847e-12)"/><path class="st12" d="M889.67,710.2c17.93-2.88,77.63-23.71,95.67-30.06c-0.1-0.38-0.2-0.76-0.32-1.14&#10;&#9;&#9;&#9;&#9;c-22.01,7.14-44.11,14.09-66.34,20.42c-33.5,9.45-33.93,9.07-49.44,2.02c-24.62-11.24-63.12-37.12-95.44-65.32&#10;&#9;&#9;&#9;&#9;c-2.3,0.84-4.41,2.04-6.36,3.53C811.21,676.39,870.33,713.3,889.67,710.2z" style="fill: rgb(217, 221, 122);" transform="matrix(1, 0, 0, 1, 0, 2.7284841053187847e-12)"/><path class="st12" d="M745.32,608.73c-0.05,0.09-0.1,0.19-0.15,0.29C745.22,608.92,745.27,608.83,745.32,608.73L745.32,608.73z" style="fill: rgb(217, 221, 122);" transform="matrix(1, 0, 0, 1, 0, 2.7284841053187847e-12)"/><path class="st13" d="M767.45,639.65c1.95-1.49,4.05-2.68,6.36-3.53c-10.35-9.03-20.07-18.29-28.48-27.39&#10;&#9;&#9;&#9;&#9;c-0.05,0.1-0.1,0.19-0.15,0.29c-0.54,1.03-1.1,2.08-1.68,3.17c-0.51,0.96-1.02,1.93-1.55,2.93c-0.15,0.29-0.3,0.56-0.45,0.85&#10;&#9;&#9;&#9;&#9;C749.01,623.57,757.86,631.61,767.45,639.65z" style="fill: rgb(196, 174, 48);" transform="matrix(1, 0, 0, 1, 0, 2.7284841053187847e-12)"/><path class="st11" d="M876.25,723.53c-27.22-1.75-120.36-18.28-130.08-20.61c-1.84-0.44,28.07,40.05,106.7,68.33&#10;&#9;&#9;&#9;&#9;c-27.26-17.82-51.43-36.57-68.1-53.09c38.08,7.02,77.08,11.79,88.91,11.95c23.08,0.3,87.99-24.83,112.62-43.69&#10;&#9;&#9;&#9;&#9;C968.95,696.42,903.47,725.28,876.25,723.53z" style="fill: rgb(26, 91, 88);" transform="matrix(1, 0, 0, 1, 0, 2.7284841053187847e-12)"/><path class="st14" d="M269.94,496.83c4.9-7.67,4.87-15.05,2.39-15.23c-2.89-0.21-4.69,5.28-5.42,4.67&#10;&#9;&#9;&#9;c-0.73-0.61-5.32-8.52-12.57-8.34c-6.34,0.15-12.17,15.15-10.05,20.37c2.12,5.23,16.4,3.31,19.52,5.91&#10;&#9;&#9;&#9;C266.92,506.81,269.94,496.83,269.94,496.83z" style="fill: rgb(249, 249, 93);" transform="matrix(1, 0, 0, 1, 0, 1.8189894035458565e-12)"/><path class="st15" d="M243.86,496.18c0.05,0.81,0.18,1.53,0.42,2.12c2.12,5.23,16.4,3.31,19.52,5.91&#10;&#9;&#9;&#9;&#9;c3.12,2.6,6.13-7.38,6.13-7.38c0.63-0.98,1.17-1.95,1.64-2.91c-3.35,2.79-8.22,4.3-12.34,5.33&#10;&#9;&#9;&#9;&#9;C253.97,500.57,247.01,499.44,243.86,496.18z" style="fill: rgb(221, 216, 38);" transform="matrix(1, 0, 0, 1, 0, 2.7284841053187847e-12)"/><path class="st14" d="M803.25,555.62c1.78,7.74,5.96,9.97,8.62,10.14c1.92,0.12,2.2-2.99,2.2-2.99&#10;&#9;&#9;&#9;c5.83,6.33,13.22,7.18,15.35,5.38c3.72-3.14,7.15-14.52,3.94-19.08c-3.21-4.55-19.85-4.24-24.32-6.66&#10;&#9;&#9;&#9;C801.25,545.29,803.25,555.62,803.25,555.62z" style="fill: rgb(249, 249, 93);" transform="matrix(1, 0, 0, 1, 0, 1.8189894035458565e-12)"/><path class="st15" d="M813.2,546.44c2.25-1.3,17.51,1.48,21.34,9.58c0.28-2.73,0-5.29-1.17-6.95&#10;&#9;&#9;&#9;&#9;c-3.21-4.55-19.85-4.24-24.32-6.66c-7.81,2.87-5.81,13.21-5.81,13.21c0.09,0.37,0.18,0.72,0.28,1.07&#10;&#9;&#9;&#9;&#9;C810.89,553.96,811.04,547.68,813.2,546.44z" style="fill: rgb(221, 216, 38);" transform="matrix(1, 0, 0, 1, 0, 2.7284841053187847e-12)"/><path class="st16" d="M505.7,503.03c-30.48,63.81-166.32,22.9-235.76-6.2c-4.28,3.02-6.13,7.38-6.13,7.38&#10;&#9;&#9;&#9;c22.6,25.06,105.17,65.88,169.81,77.05c64.64,11.17,178.09,137.86,235.33,171.57c55.21-46.46,83.64-93.21,84.72-159.83&#10;&#9;&#9;&#9;c-88.06-62.93-138.29-74.21-138.29-74.21c75.69-3.79,134.41,15.08,187.88,36.83c2.37-5.26,5.81-13.21,5.81-13.21&#10;&#9;&#9;&#9;c-81.71-44.32-128.15-63.54-211.2-69.24C528.19,468.39,516.1,481.26,505.7,503.03z" style="fill: rgb(73, 76, 84);" transform="matrix(0.9999999999999999, 0, 0, 0.9999999999999999, 0.000007955365617817733, -0.00002082259936742048)"/><path class="st9" d="M803.25,555.62c-69.71-33.94-154.99-58.26-222.83-39.95c-31.2,8.42,47.56,8.02,52.81,19.83&#10;&#9;&#9;&#9;&#9;c5.25,11.81,58.92,20.1,67.52,47.77c7.4,23.81,37.81,53.47,37.36,84.01c9.89-22.26,15.1-46.55,15.54-74.28&#10;&#9;&#9;&#9;&#9;c-88.06-62.93-138.29-74.21-138.29-74.21C691.06,515,749.78,533.87,803.25,555.62z" style="fill: rgb(56, 61, 71);" transform="matrix(1, 0, 0, 1, 0, 2.7284841053187847e-12)"/><path class="st17" d="M433.74,469.93c-7.92,24.31,7.74,61.46,24.43,51.66c10.96-6.43,26.6-0.61,36.12,3.98&#10;&#9;&#9;&#9;c17.85,8.61,12.14-19.57,12.17-19.68c0,0-24.13-3.16-30.32-17.36C462.94,458.25,441.19,447.05,433.74,469.93z" style="fill: rgb(255, 199, 161);" transform="matrix(1, 0, 0, 1, 0, 1.8189894035458565e-12)"/><path class="st18" d="M506.46,505.9c0,0-24.13-3.16-30.32-17.36c-5.77-13.23-13.17-22.82-20.3-27.52&#10;&#9;&#9;&#9;&#9;c0.43,3.19,1.31,6.52,3.01,9.32c4.99,8.18,2.74,20.4,4.06,28.74c2.1,13.28-14.83,32.6-26.32,9.19&#10;&#9;&#9;&#9;&#9;c5,11.27,13.15,18.27,21.57,13.33c10.96-6.43,26.6-0.61,36.12,3.98C512.13,534.19,506.42,506,506.46,505.9z" style="fill: rgb(249, 180, 133);" transform="matrix(1, 0, 0, 1, 0, 2.7284841053187847e-12)"/><path class="st19" d="M506.46,505.9c0,0-24.13-3.16-30.32-17.36c-2.05-4.7-4.31-8.93-6.68-12.66&#10;&#9;&#9;&#9;&#9;c1.51,25.6,24.62,45.45,26.75,50.5C511.7,532.07,506.42,506,506.46,505.9z" style="fill: rgb(237, 157, 102);" transform="matrix(1, 0, 0, 1, 0, 2.7284841053187847e-12)"/><path class="st20" d="M482.88,487.11c1.96-4.74-1.59-13.3-8.74-13.77c2.37-4.44,0.24-12.72-9.52-13.82&#10;&#9;&#9;&#9;c-1.48-7.44-9.69-11.24-16.87-7.82c-4.07-4.04-12.31-3.42-15.47,5.91c-7.5,1.86-2.84,13.3,3.4,9.69c2.87,1.61,8.86,0.16,9.48-3.46&#10;&#9;&#9;&#9;c1.54,5.84,0.14,18.36,3.81,19c3.67,0.63-1.59-13.79,3.33-14.36c4.92-0.57,4.92,9.55,10.16,9.03c-0.42,3.56,3.42,7.39,7.31,6.37&#10;&#9;&#9;&#9;C471.87,489.42,481.39,490.56,482.88,487.11z" style="fill: rgb(124, 71, 35);" transform="matrix(1, 0, 0, 1, 0, 1.8189894035458565e-12)"/><path class="st17" d="M451.36,469.36c2.67-6.41,5.93-5.02,8.75-1.61c2.83,3.41,3.61,12.93-2.14,10.7" style="fill: rgb(255, 199, 161);" transform="matrix(1, 0, 0, 1, 0, 1.8189894035458565e-12)"/><path class="st12" d="M745.95,513.33c-21.45-8.86-43.47-16.42-65.98-22.23c-22.51-5.78-45.51-9.91-68.78-11.47&#10;&#9;&#9;&#9;c-22.32-1.47-44.98-0.7-67.03,4.2c1.62,1.25,3.28,2.44,4.96,3.58c20.19-4.34,41.12-5.27,61.85-4.21&#10;&#9;&#9;&#9;c23.02,1.19,45.91,4.95,68.38,10.35c22.47,5.44,44.52,12.63,66.04,21.14c21.54,8.48,42.49,18.47,62.88,29.47l0.2-0.37&#10;&#9;&#9;&#9;C788.25,532.48,767.42,522.16,745.95,513.33z" style="fill: rgb(217, 221, 122);" transform="matrix(1, 0, 0, 1, 0, 1.8189894035458565e-12)"/><path class="st12" d="M746.83,520.31c-20.46-8.05-41.46-14.84-62.88-19.99c-21.42-5.15-43.27-8.68-65.31-10.05&#10;&#9;&#9;&#9;c-20.23-1.24-40.65-0.66-60.79,2.43c2.34,1.27,4.73,2.45,7.16,3.56c17.63-2.52,35.57-3.16,53.43-2.35&#10;&#9;&#9;&#9;c21.82,0.99,43.56,4.14,64.93,8.91c21.38,4.78,42.39,11.19,62.92,18.89c20.54,7.7,40.59,16.68,60.14,26.68l0.2-0.37&#10;&#9;&#9;&#9;C787.24,537.7,767.3,528.37,746.83,520.31z" style="fill: rgb(217, 221, 122);" transform="matrix(1, 0, 0, 1, 0, 1.8189894035458565e-12)"/><path class="st12" d="M721.16,627.06c4.86,1.46-60.34-48.1-63.09-50.86c-2.03-2.03-6.14-29.98-8.17-44.62&#10;&#9;&#9;&#9;&#9;c-5.87-2.63-11.02-4.76-15.43-6.46c3.94,13.78,14.28,49.68,16.48,54.6C653.67,585.84,716.31,625.6,721.16,627.06z" style="fill: rgb(217, 221, 122);" transform="matrix(1, 0, 0, 1, 0, 2.7284841053187847e-12)"/><path class="st12" d="M725.93,612.51c4.86,1.46-48.44-39.77-51.2-42.53c-1.44-1.44-3.21-15.51-4.57-28.65&#10;&#9;&#9;&#9;&#9;c-3.81-1.95-7.43-3.75-10.87-5.39c2.99,14.83,6.77,32.68,8.31,36.14C670.32,578.19,721.07,611.05,725.93,612.51z" style="fill: rgb(217, 221, 122);" transform="matrix(1, 0, 0, 1, 0, 2.7284841053187847e-12)"/><path class="st13" d="M649.9,531.58c-3.66-1.64-7.04-3.08-10.14-4.35c-0.01,0-0.02-0.01-0.02-0.01&#10;&#9;&#9;&#9;&#9;&#9;c-0.6-0.25-1.19-0.48-1.77-0.72c-0.02-0.01-0.05-0.02-0.07-0.03c-0.58-0.23-1.15-0.46-1.71-0.68c-0.01-0.01-0.03-0.01-0.04-0.02&#10;&#9;&#9;&#9;&#9;&#9;c-0.57-0.23-1.13-0.45-1.68-0.66c1.12,3.91,2.75,9.59,4.57,15.85c3.42,2.11,8.01,4.22,13.17,6.49&#10;&#9;&#9;&#9;&#9;&#9;C651.32,541.67,650.52,536.02,649.9,531.58C649.9,531.58,649.9,531.58,649.9,531.58z" style="fill: rgb(196, 174, 48);" transform="matrix(1, 0, 0, 1, 0, 3.637978807091713e-12)"/><path class="st13" d="M670.16,541.33c-0.95-0.49-1.89-0.97-2.82-1.43c0,0,0,0-0.01,0c-0.91-0.46-1.82-0.91-2.71-1.35&#10;&#9;&#9;&#9;&#9;&#9;c-0.03-0.01-0.06-0.03-0.08-0.04c-0.88-0.43-1.74-0.86-2.6-1.28c-0.03-0.01-0.05-0.03-0.08-0.04c-0.87-0.42-1.73-0.84-2.58-1.25&#10;&#9;&#9;&#9;&#9;&#9;c0,0,0,0,0,0c1.06,5.24,2.21,10.86,3.34,16.09c3.08,1.38,6.21,2.84,9.29,4.39C671.29,551.8,670.69,546.49,670.16,541.33z" style="fill: rgb(196, 174, 48);" transform="matrix(1, 0, 0, 1, 0, 3.637978807091713e-12)"/><path class="st13" d="M705.7,594.85c1.49,2.86,3.17,5.79,4.95,8.78c7.68,4.86,13.75,8.42,15.28,8.88&#10;&#9;&#9;&#9;&#9;&#9;C728.2,613.19,717.75,604.54,705.7,594.85z" style="fill: rgb(196, 174, 48);" transform="matrix(1, 0, 0, 1, 0, 3.637978807091713e-12)"/><path class="st9" d="M428.4,571.08c-32.95-1.76-130.92-36.17-164.6-66.87c22.6,25.06,105.17,65.88,169.81,77.05&#10;&#9;&#9;&#9;&#9;c26.38,4.56,60.89,28.36,96.4,57.23C519.88,628.68,494.29,574.59,428.4,571.08z" style="fill: rgb(56, 61, 71);" transform="matrix(1, 0, 0, 1, 0, 2.7284841053187847e-12)"/><path class="st12" d="M629.78,718.53c-2.26-2.26-52.04-52.74-55.79-54.91c-2.63-1.52-11.78-3.74-19.43-4.59&#10;&#9;&#9;&#9;&#9;c5.48,4.69,10.94,9.42,16.36,14.14c0.41,0.01,0.75,0.01,0.97,0.01C574.48,673.18,633.8,722.55,629.78,718.53z" style="fill: rgb(217, 221, 122);" transform="matrix(1, 0, 0, 1, 0, 2.7284841053187847e-12)"/>
</svg>