<?xml version="1.0" encoding="utf-8"?>
<svg id="master-artboard" viewBox="0 0 1400 1400" version="1.1" xmlns="http://www.w3.org/2000/svg" x="0px" y="0px" width="1400px" height="1400px" enable-background="new 0 0 1400 1400"><defs><radialGradient id="gradient-0" gradientUnits="objectBoundingBox" cx="0.5" cy="0.5" r="0.5">
                <stop offset="0" style="stop-color: #ffa861"/>
                <stop offset="1" style="stop-color: #fa7000"/>
              </radialGradient><radialGradient id="gradient-1" gradientUnits="objectBoundingBox" cx="0.5" cy="0.5" r="0.5">
                <stop offset="0" style="stop-color: #330055"/>
                <stop offset="1" style="stop-color: #000000"/>
              </radialGradient></defs>
<path d="M 0 0 H 1400 V 1400 H 0 V 0 Z" fill-rule="evenodd" clip-rule="evenodd" fill="#FFA861" style="fill: rgb(51, 0, 85); fill-opacity: 0;" transform="matrix(0.9999986101801337, -0.002158930736453565, 0.002158930736453565, 0.9999986101801337, -1.5095287804315376, 1.5127759031162498)"/>
<g>
	<g>
		<path d="M 617.5999755859375 1121.4000244140625 L 631.4000244140625 1091.5 L 657 1089.699951171875 L 688.5999755859375 1113.0999755859375 L 683 1130.0999755859375 L 700.2999877929688 1142.0999755859375 L 694.4000244140625 1140.5999755859375 L 669.7000122070312 1175.0999755859375 L 703.7000122070312 1177.300048828125 L 651.7999877929688 1179.199951171875 L 673.4000244140625 1182.5 L 630.7999877929688 1182.5 L 650.2999877929688 1179.199951171875 L 638.2000122070312 1172.4000244140625 L 634.5 1149.5 Z" fill-rule="evenodd" clip-rule="evenodd" fill="#6633FF"/>
		<path d="M 622.9000244140625 1148.300048828125 L 657.2000122070312 1119.9000244140625 L 616.0999755859375 1167.0999755859375 Z" fill-rule="evenodd" clip-rule="evenodd" fill="#FFFFFF"/>
		<path d="M 679.4000244140625 1135.5999755859375 L 660.9000244140625 1168 L 748.9000244140625 1139.300048828125 L 675.4000244140625 1153.5 L 683.4000244140625 1140.9000244140625 Z" fill-rule="evenodd" clip-rule="evenodd" fill="#FFFFFF"/>
	</g>
	<g>
		<path d="M 1026.300048828125 1167.0999755859375 L 1044.5 1165.300048828125 L 1065.199951171875 1157.9000244140625 L 1072.9000244140625 1143.0999755859375 L 1110.5 1145.5 L 1083 1147.4000244140625 L 1088 1154.199951171875 L 1081.5 1155.4000244140625 L 1104.9000244140625 1155.699951171875 L 1090.800048828125 1157.9000244140625 L 1104.699951171875 1179.800048828125 L 1138 1181 L 1089.800048828125 1184.4000244140625 L 1116.4000244140625 1187.199951171875 L 1132.699951171875 1211 L 1127.199951171875 1215.300048828125 L 1059.300048828125 1215.300048828125 L 1054.699951171875 1207.5 L 1031.199951171875 1207.5 L 1070.0999755859375 1204.5 L 1048.800048828125 1204.5 L 1029 1184.0999755859375 Z" fill-rule="evenodd" clip-rule="evenodd" fill="#6633FF"/>
		<path d="M 1027 1200.699951171875 L 1088.0999755859375 1176.4000244140625 L 1033.800048828125 1204.5 Z" fill-rule="evenodd" clip-rule="evenodd" fill="#FFFFFF"/>
		<path d="M 1122.699951171875 1169.300048828125 L 1083.800048828125 1210.9000244140625 L 1113.4000244140625 1210.699951171875 Z" fill-rule="evenodd" clip-rule="evenodd" fill="#FFFFFF"/>
	</g>
	<g>
		<path d="M 769.4000244140625 909.7999877929688 L 807.7000122070312 948.5999755859375 L 844.7999877929688 970.7999877929688 L 810.7999877929688 976.4000244140625 L 868.2000122070312 973.2999877929688 L 846.5999755859375 977.5999755859375 L 854 1005.4000244140625 L 882.4000244140625 1008.5 L 909.5999755859375 1057.800048828125 L 992.9000244140625 1112.199951171875 L 981.7999877929688 1117.0999755859375 L 997.7999877929688 1116.5 L 1013.2999877929688 1133.199951171875 L 1013.9000244140625 1161.5 L 1038.5999755859375 1172.699951171875 L 1080 1161 L 1069.5 1134.4000244140625 L 1081.800048828125 1128.199951171875 L 1047.9000244140625 1131.9000244140625 L 1064.5 1127.5999755859375 L 1050.9000244140625 1117.699951171875 L 1038 1111.5999755859375 L 997.7999877929688 1043 L 1051.5999755859375 1035.5999755859375 L 962.7000122070312 1036.199951171875 L 1026.9000244140625 1028.199951171875 L 972.5 1023.9000244140625 L 989.2000122070312 1021.4000244140625 L 961.4000244140625 973.9000244140625 L 973.2000122070312 969.5999755859375 L 946 969.5999755859375 L 951 967.0999755859375 L 916.4000244140625 949.2000122070312 L 900.2999877929688 922 L 878.0999755859375 910.9000244140625 L 872.4000244140625 886.9000244140625 L 838 909.0999755859375 Z" fill-rule="evenodd" clip-rule="evenodd" fill="#4D4D4D"/>
		<path d="M 803.7000122070312 909.4000244140625 L 836.7999877929688 941.7999877929688 L 888.0999755859375 941.7999877929688 L 781.9000244140625 947.9000244140625 L 859.7000122070312 952.2999877929688 L 944.2999877929688 1031.9000244140625 L 934.4000244140625 1035.5999755859375 L 947.2999877929688 1039.9000244140625 L 1025.199951171875 1124.5 L 1038.699951171875 1155.4000244140625 L 1067.800048828125 1164.4000244140625 L 1062.199951171875 1112.800048828125 L 1016.5 1067.0999755859375 L 980.0999755859375 1061.5999755859375 L 1056.5999755859375 1053.5 L 990.5999755859375 1053.5 L 953.5 987.5 L 922.5999755859375 981.2999877929688 L 981.9000244140625 978.7999877929688 L 946 969.5999755859375 L 934.4000244140625 946.0999755859375 L 868.7000122070312 908.4000244140625 Z" opacity="0.5" fill-rule="evenodd" clip-rule="evenodd" fill="#333333"/>
	</g>
	<g>
		<path d="M 788 713.7000122070312 L 774.0999755859375 690.5 L 821.5999755859375 686.7999877929688 L 749.0999755859375 689.2999877929688 L 775.9000244140625 685.2999877929688 L 750.5999755859375 643.4000244140625 L 570 662.4000244140625 L 544.0999755859375 678.7999877929688 L 541.9000244140625 693.9000244140625 L 524.7000122070312 712.7000122070312 L 489.3999938964844 717.4000244140625 L 519.4000244140625 717.7000122070312 L 498.1000061035156 740.5 L 452.1000061035156 772.9000244140625 L 453.6000061035156 805.4000244140625 L 488.5 866.5 L 570.2999877929688 885 L 613.9000244140625 880 L 592.5 877.9000244140625 L 602.4000244140625 875.4000244140625 L 603 851.7000122070312 L 633 837.7999877929688 L 658 823.9000244140625 L 729.5999755859375 896.0999755859375 L 749.2999877929688 896.7000122070312 L 724 902.9000244140625 L 742.2999877929688 904.4000244140625 L 749.7000122070312 910 L 838 909.0999755859375 L 880.2000122070312 881.9000244140625 L 908.5999755859375 879.7000122070312 L 859.2999877929688 877 L 879.5999755859375 874.5 L 829.2999877929688 796.0999755859375 L 861.7000122070312 792.4000244140625 L 785.7999877929688 785.2999877929688 L 901.5 771.4000244140625 L 821.2999877929688 773.9000244140625 L 834.2999877929688 769.2000122070312 L 812.9000244140625 766.7000122070312 L 801.5 748.2000122070312 L 801.2000122070312 736.7999877929688 L 791.2999877929688 724.7999877929688 L 815.7000122070312 718.2999877929688 L 765.7000122070312 718.2999877929688 Z" fill-rule="evenodd" clip-rule="evenodd" fill="#FFFFFF"/>
		<path d="M 571.7999877929688 684.7999877929688 L 611.5 739.9000244140625 L 525.0999755859375 743.5999755859375 L 574.5 749.7999877929688 L 454.1000061035156 749.7999877929688 L 650.4000244140625 759 L 505.29998779296875 760.2999877929688 L 491.20001220703125 775.5 L 529.4000244140625 875.7000122070312 L 628.2000122070312 868.9000244140625 L 623.7999877929688 831.9000244140625 L 733.0999755859375 852.2999877929688 L 675.0999755859375 856 L 806.5999755859375 867.7000122070312 L 733.0999755859375 873.2999877929688 L 772.5999755859375 873.9000244140625 L 822 914 L 893.5999755859375 905.2999877929688 L 818.2999877929688 802.2999877929688 L 875.0999755859375 801.5999755859375 L 801 791.0999755859375 L 776.2999877929688 750.4000244140625 L 838.7000122070312 751.5999755859375 L 780.7000122070312 744.2000122070312 L 789.2999877929688 741.0999755859375 L 733.7000122070312 641.7000122070312 L 676.9000244140625 683.5999755859375 L 618.7999877929688 683.0999755859375 L 684.4000244140625 694.2000122070312 L 591.0999755859375 696.0999755859375 Z" opacity="0.5" fill-rule="evenodd" clip-rule="evenodd" fill="#777776"/>
	</g>
	<g>
		<path d="M 466.29998779296875 778.2000122070312 L 445.8999938964844 821.4000244140625 L 436.70001220703125 832.5 L 444.1000061035156 881.9000244140625 L 453.8999938964844 883.7999877929688 L 484.79998779296875 952.9000244140625 L 526.7999877929688 1006.5999755859375 L 514.5 1009.0999755859375 L 552.0999755859375 1014.5999755859375 L 533 1016.5 L 579.9000244140625 1073.300048828125 L 573.0999755859375 1077.5999755859375 L 583 1079.4000244140625 L 587.9000244140625 1102.300048828125 L 617.5999755859375 1121.4000244140625 L 657.7000122070312 1092.4000244140625 L 651.5 1069 L 671.2999877929688 1069 L 629.2999877929688 1064 L 637.9000244140625 1059.699951171875 L 622.5 1044.300048828125 L 599.7000122070312 1015.9000244140625 L 600.2999877929688 957.7999877929688 L 614.5 951.7000122070312 L 581.7999877929688 951.7000122070312 L 612.5999755859375 944.2999877929688 L 597.2000122070312 942.4000244140625 L 645.2999877929688 935 L 594.7000122070312 931.9000244140625 L 568.7999877929688 893.2999877929688 L 635.5 895.5 L 539.7999877929688 886.2000122070312 L 563.2999877929688 883.4000244140625 L 560.0999755859375 873.2999877929688 L 565.7000122070312 857.2000122070312 L 587.2999877929688 856.5999755859375 L 582.4000244140625 814.5999755859375 L 530.5 777.5999755859375 L 570 767.0999755859375 Z" fill-rule="evenodd" clip-rule="evenodd" fill="#4D4D4D"/>
		<path d="M 500.79998779296875 774.5 L 461.79998779296875 819.5999755859375 L 480 823.9000244140625 L 452.20001220703125 843 L 453.8999938964844 883.7999877929688 L 491.1000061035156 894.2999877929688 L 517.5999755859375 974.5 L 564 986.7999877929688 L 535.5999755859375 987.5 L 602.9000244140625 1070.199951171875 L 615.7999877929688 1107.9000244140625 L 726.2999877929688 1107.199951171875 L 672.7999877929688 1101.4000244140625 L 622 1016.5 L 569.5 1003.5 L 609 998 L 614 981.9000244140625 L 643 974.5 L 586.2000122070312 973.2000122070312 L 607.7999877929688 965.9000244140625 L 554.7000122070312 869.5 L 576.5 856.9000244140625 L 547.9000244140625 857.7999877929688 L 598.5 844.2000122070312 L 560.9000244140625 840.5 L 556.4000244140625 796.0999755859375 Z" opacity="0.5" fill-rule="evenodd" clip-rule="evenodd" fill="#333333"/>
	</g>
	<g>
		<path d="M 505.3999938964844 366.5 L 479.8999938964844 381.20001220703125 L 421.20001220703125 393.6000061035156 L 468.20001220703125 387.3999938964844 L 449.6000061035156 394.20001220703125 L 439.1000061035156 425.70001220703125 L 433.6000061035156 451 L 386.70001220703125 475.1000061035156 L 407 537.4000244140625 L 483 538.7000122070312 L 460.70001220703125 536.2000122070312 L 463.8999938964844 529.4000244140625 L 508.29998779296875 531.2000122070312 L 454.6000061035156 523.7999877929688 L 471.20001220703125 521.4000244140625 L 474.29998779296875 512.0999755859375 L 495.29998779296875 507.20001220703125 L 519.4000244140625 544.2000122070312 L 532.2999877929688 589.9000244140625 L 518.7999877929688 595.4000244140625 L 560.7999877929688 597.2999877929688 L 527.4000244140625 600.4000244140625 L 536.0999755859375 602.7999877929688 L 538.5 617 L 528.7000122070312 642.4000244140625 L 544.0999755859375 678.7999877929688 L 620 695.4000244140625 L 613.2000122070312 691.7000122070312 L 643.5 687.4000244140625 L 763.9000244140625 684.2999877929688 L 618.7999877929688 683.0999755859375 L 673.0999755859375 680.5999755859375 L 729.2999877929688 657.2000122070312 L 788.5999755859375 657.2000122070312 L 708.9000244140625 653.5 L 747.7999877929688 646.7000122070312 L 758.9000244140625 633.7000122070312 L 755.2000122070312 628.0999755859375 L 783 625.7000122070312 L 741.5999755859375 621.4000244140625 L 805.9000244140625 614 L 754.5999755859375 614 L 742.9000244140625 581.7999877929688 L 794.7000122070312 576.9000244140625 L 721.2999877929688 573.7999877929688 L 779.2999877929688 567 L 748.4000244140625 565.2000122070312 L 750.2999877929688 541.0999755859375 L 734.2000122070312 488.6000061035156 L 796 482.5 L 809.5 468.8999938964844 L 846 466.3999938964844 L 792.9000244140625 459.6000061035156 L 805.2000122070312 458.3999938964844 L 779.2999877929688 414.5 L 776.2000122070312 378.1000061035156 L 741.5999755859375 349.1000061035156 L 776.7999877929688 349.1000061035156 L 705.2000122070312 343.6000061035156 L 728.7000122070312 340.5 L 712 332.3999938964844 L 729.2999877929688 328.70001220703125 L 663.2999877929688 332.3999938964844 L 672.5 330 L 657.7000122070312 323.79998779296875 L 614.7999877929688 320.6000061035156 L 625 324.8999938964844 L 613.9000244140625 371.5 L 579 403.6000061035156 L 543.2000122070312 399 L 534.2000122070312 370.8999938964844 L 508.29998779296875 370.6000061035156 Z" fill-rule="evenodd" clip-rule="evenodd" fill="#336699"/>
		<path d="M 416.1000061035156 537.5999755859375 L 483 538.7000122070312 L 460.70001220703125 536.2000122070312 L 463.8999938964844 529.4000244140625 L 508.29998779296875 531.2000122070312 L 454.6000061035156 523.7999877929688 L 471.20001220703125 521.4000244140625 L 474.29998779296875 512.0999755859375 L 495.29998779296875 507.20001220703125 L 475.1000061035156 464.20001220703125 L 447.29998779296875 494.20001220703125 L 470.1000061035156 500 L 402.20001220703125 498.20001220703125 L 448.79998779296875 506.20001220703125 Z" fill-rule="evenodd" clip-rule="evenodd" fill="#333333"/>
		<path d="M 646.0999755859375 322.8999938964844 L 602.9000244140625 336.5 L 647.2999877929688 336.5 L 625.7000122070312 340.79998779296875 L 668.9000244140625 345.1000061035156 L 512.0999755859375 393.29998779296875 L 531.2000122070312 395.1000061035156 L 539.9000244140625 411.79998779296875 L 578.2000122070312 416.70001220703125 L 621.4000244140625 455 L 554.0999755859375 470.3999938964844 L 696.0999755859375 460.5 L 631.9000244140625 473.79998779296875 L 685 541.4000244140625 L 636.2000122070312 590.7999877929688 L 538.5999755859375 558.0999755859375 L 620.7999877929688 592.7000122070312 L 576.9000244140625 596.4000244140625 L 612.7000122070312 605.5999755859375 L 551 624.2000122070312 L 699.2000122070312 622.2999877929688 L 552.9000244140625 655 L 648.5 659.2999877929688 L 573.2000122070312 668.5999755859375 L 788.5999755859375 657.2000122070312 L 699 658.0999755859375 L 729.4000244140625 634.7000122070312 L 717.0999755859375 597.5999755859375 L 822 597 L 717.0999755859375 591.4000244140625 L 735 552.5 L 729.4000244140625 509.8999938964844 L 801.5999755859375 426.6000061035156 L 765.2000122070312 427.79998779296875 L 856 415.5 L 765.2000122070312 411.79998779296875 L 764 383.3999938964844 L 694.9000244140625 351.29998779296875 L 818.9000244140625 353.70001220703125 L 680.5999755859375 343.8999938964844 Z" opacity="0.5" fill-rule="evenodd" clip-rule="evenodd" fill="#0B3151"/>
		<path d="M 530.2999877929688 370.79998779296875 L 541.7000122070312 406.20001220703125 L 645.5 413 L 606.5 403.79998779296875 L 627.2000122070312 393.29998779296875 L 634.2999877929688 371.3999938964844 L 662.4000244140625 373.5 L 631.9000244140625 321.8999938964844 L 625 324.8999938964844 L 612.4000244140625 377.5 L 578.2000122070312 397 L 538.7999877929688 385.1000061035156 L 534.2000122070312 370.8999938964844 Z" fill-rule="evenodd" clip-rule="evenodd" fill="#333333"/>
		<path d="M 566.7999877929688 455.8999938964844 L 576.5999755859375 482.79998779296875 L 569.2000122070312 485.20001220703125 L 592.7000122070312 496.1000061035156 L 581.9000244140625 474.3999938964844 L 601.5999755859375 472.6000061035156 L 607.4000244140625 483.5 L 618.5 466 L 605.2999877929688 449.3999938964844 L 576 452.5 L 595.7999877929688 460.79998779296875 L 582.5 465.79998779296875 L 576 458.1000061035156 Z" fill-rule="evenodd" clip-rule="evenodd" fill="#FFFFFF"/>
	</g>
	<g>
		<path d="M 783.2999877929688 452.5 L 738.2999877929688 451.6000061035156 L 703.4000244140625 481.79998779296875 L 658 490.20001220703125 L 618.7999877929688 465.5 L 595.9000244140625 501.6000061035156 L 601.2000122070312 510.5 L 591.5999755859375 525.2999877929688 L 618.7999877929688 536.2000122070312 L 627.0999755859375 529.7000122070312 L 662.5999755859375 543 L 677.0999755859375 530.5999755859375 L 685.2000122070312 531.2000122070312 L 694.4000244140625 523.7999877929688 L 776.2000122070312 537.4000244140625 L 808.5999755859375 524.4000244140625 L 839.5 522.2999877929688 L 793.7999877929688 518.9000244140625 L 818.2000122070312 518.2999877929688 L 823.0999755859375 511.5 L 821.2999877929688 504.1000061035156 L 826.7999877929688 502.79998779296875 L 816.7000122070312 501 L 819.7000122070312 499.1000061035156 L 802.4000244140625 468.6000061035156 L 792.5999755859375 465.79998779296875 Z" fill-rule="evenodd" clip-rule="evenodd" fill="#FFFFCC"/>
		<path d="M 577.2999877929688 532.0999755859375 L 699.2000122070312 537.4000244140625 L 650.7000122070312 532.5 L 725.4000244140625 536.5 L 737.0999755859375 526.9000244140625 L 832.5 533.4000244140625 L 772.5999755859375 526 L 801.5999755859375 511.5 L 854.4000244140625 512.0999755859375 L 816.5 508.1000061035156 L 803.2000122070312 484.29998779296875 L 836.7999877929688 486.79998779296875 L 802.7999877929688 475.70001220703125 L 784.0999755859375 459.8999938964844 L 719.2999877929688 490.79998779296875 L 645.2000122070312 491.1000061035156 L 720.2000122070312 487.1000061035156 L 634 486.5 L 647.0999755859375 483.29998779296875 L 631.9000244140625 473.79998779296875 L 608.4000244140625 507.20001220703125 L 617.4000244140625 519.2000122070312 L 610.5999755859375 528.5 Z" opacity="0.5" fill-rule="evenodd" clip-rule="evenodd" fill="#AA8852"/>
	</g>
	<g>
		<path d="M 395.29998779296875 501.29998779296875 L 378.29998779296875 579.4000244140625 L 359.79998779296875 583.0999755859375 L 384.5 583.7000122070312 L 374 588.5999755859375 L 373.3999938964844 597.9000244140625 L 359.20001220703125 642.4000244140625 L 366 655.2999877929688 L 359.20001220703125 685 L 393.79998779296875 718.2999877929688 L 415.3999938964844 697.9000244140625 L 411 688.7000122070312 L 424.6000061035156 680.5999755859375 L 394.3999938964844 639.2999877929688 L 409.79998779296875 605.9000244140625 L 441.8999938964844 580.5999755859375 L 450 560.9000244140625 L 479 560.2000122070312 L 432.70001220703125 555.9000244140625 L 456.1000061035156 554.0999755859375 L 456.70001220703125 538.2000122070312 L 407 537.4000244140625 Z" fill-rule="evenodd" clip-rule="evenodd" fill="#FFFFCC"/>
		<path d="M 425.70001220703125 537.7000122070312 L 410.8999938964844 583.4000244140625 L 380 649.5 L 389.20001220703125 699.5 L 403.3999938964844 702.5999755859375 L 367.29998779296875 704.7000122070312 L 433.1000061035156 716.7999877929688 L 405.6000061035156 643.9000244140625 L 433.1000061035156 577.2000122070312 L 453.1000061035156 571.4000244140625 L 445.8999938964844 570.7000122070312 L 449.5 538.0999755859375 Z" opacity="0.5" fill-rule="evenodd" clip-rule="evenodd" fill="#AA8852"/>
	</g>
	<g>
		<path d="M 485.79998779296875 235.10000610351562 L 476.20001220703125 241.89999389648438 L 475.6000061035156 272.3999938964844 L 466.6000061035156 282 L 473.70001220703125 288.79998779296875 L 481.70001220703125 292.1000061035156 L 479.29998779296875 309.79998779296875 L 493.1000061035156 330.3999938964844 L 496 353 L 508.29998779296875 370.6000061035156 L 534.2000122070312 370.8999938964844 L 543.2000122070312 399 L 579 403.6000061035156 L 613.9000244140625 371.5 L 625 324.8999938964844 L 614.7999877929688 320.6000061035156 L 608.2999877929688 299.8999938964844 L 626.5 295.8999938964844 L 597.5 294 L 619.4000244140625 291.20001220703125 L 613.5 290.6000061035156 L 620.2999877929688 270.20001220703125 L 614.2000122070312 230.39999389648438 L 637.2999877929688 227.60000610351562 L 600.5999755859375 228.89999389648438 L 621.9000244140625 224.1999969482422 L 614.2000122070312 224.89999389648438 L 596.9000244140625 208.5 L 646.9000244140625 202.3000030517578 L 589.2000122070312 203.1999969482422 L 579.5999755859375 196.1999969482422 L 620 193.10000610351562 L 554.5999755859375 192.5 L 547.2000122070312 188.8000030517578 L 577.4000244140625 184.6999969482422 L 520 186 L 512 193.6999969482422 L 485.79998779296875 200.1999969482422 L 498.3999938964844 200.1999969482422 L 477.1000061035156 208.5 Z" fill-rule="evenodd" clip-rule="evenodd" fill="#C9A96E"/>
		<path d="M 485.79998779296875 235.10000610351562 L 476.20001220703125 241.89999389648438 L 475.6000061035156 272.3999938964844 L 466.6000061035156 282 L 473.70001220703125 288.79998779296875 L 481.70001220703125 292.1000061035156 L 479.29998779296875 309.79998779296875 L 493.1000061035156 330.3999938964844 L 496 353 L 508.29998779296875 370.6000061035156 L 534.2000122070312 370.8999938964844 L 543.2000122070312 399 L 568.2000122070312 402.20001220703125 L 564.2000122070312 395.29998779296875 L 577.0999755859375 393.1000061035156 L 561.7000122070312 391.8999938964844 L 556.4000244140625 385.1000061035156 L 590.0999755859375 380.5 L 553.2999877929688 382.8999938964844 L 541.9000244140625 368.1000061035156 L 561.0999755859375 353.8999938964844 L 570 344.6000061035156 L 579.2999877929688 332.8999938964844 L 592.9000244140625 330.79998779296875 L 580.5 330.3999938964844 L 609.5 326.1000061035156 L 581.7999877929688 327.70001220703125 L 585.7999877929688 311.8999938964844 L 565.7000122070312 348.6000061035156 L 541 365.8999938964844 L 517.9000244140625 365.6000061035156 L 530.2000122070312 345.8999938964844 L 548.0999755859375 343.1000061035156 L 533.5999755859375 342.5 L 566.9000244140625 338.1000061035156 L 537.9000244140625 339.1000061035156 L 512.9000244140625 331.29998779296875 L 501.79998779296875 330.79998779296875 L 499.8999938964844 319.29998779296875 L 496.8999938964844 316.20001220703125 L 501.79998779296875 307 L 504.8999938964844 279.79998779296875 L 519.9000244140625 263.8999938964844 L 546.5999755859375 257.6000061035156 L 523.5999755859375 260.70001220703125 L 523.2999877929688 252 L 582.5999755859375 242.5 L 523.0999755859375 247.6999969482422 L 499.70001220703125 243.39999389648438 Z" fill-rule="evenodd" clip-rule="evenodd" fill="#FFFFCC"/>
		<path d="M 611.5999755859375 310.20001220703125 L 608.2999877929688 299.8999938964844 L 626.5 295.8999938964844 L 597.5 294 L 619.4000244140625 291.20001220703125 L 613.5 290.6000061035156 L 620.2999877929688 270.20001220703125 L 614.2000122070312 230.39999389648438 L 637.2999877929688 227.60000610351562 L 600.5999755859375 228.89999389648438 L 621.9000244140625 224.1999969482422 L 614.2000122070312 224.89999389648438 L 596.9000244140625 208.5 L 646.9000244140625 202.3000030517578 L 589.2000122070312 203.1999969482422 L 579.5999755859375 196.1999969482422 L 620 193.10000610351562 L 554.5999755859375 192.5 L 547.2000122070312 188.8000030517578 L 577.4000244140625 184.6999969482422 L 520 186 L 512 193.6999969482422 L 485.79998779296875 200.1999969482422 L 498.3999938964844 200.1999969482422 L 477.1000061035156 208.5 L 485.79998779296875 235.10000610351562 L 499.70001220703125 243.39999389648438 L 531.7999877929688 229.8000030517578 L 569.0999755859375 241.89999389648438 L 556.7000122070312 252.60000610351562 L 562.2999877929688 256.1000061035156 L 544.4000244140625 262.20001220703125 L 589.5 255.10000610351562 L 564.5 261.8999938964844 L 575 271.5 L 610.2000122070312 267.5 L 580.5 275.20001220703125 L 604 280.1000061035156 L 588.7999877929688 281.70001220703125 L 597.2000122070312 288.20001220703125 L 596.2999877929688 304.79998779296875 L 591.5999755859375 308.79998779296875 Z" fill-rule="evenodd" clip-rule="evenodd" fill="#1A1A1A"/>
	</g>
</g>
<g>
	<path fill-rule="evenodd" clip-rule="evenodd" fill="#FFFFFF" d="M429.1,1075.8c38.5,0,69.8,31.2,69.8,69.8&#10;&#9;&#9;c0,6.1-0.8,12.1-2.3,17.8l-75.5,10.2l71.5,1.1c-11,24-35.3,40.7-63.5,40.7c-38.5,0-69.8-31.2-69.8-69.8S390.5,1075.8,429.1,1075.8&#10;&#9;&#9;L429.1,1075.8z"/>
	<path d="M 439.6000061035156 1101.300048828125 L 556.7999877929688 1101.300048828125 L 441.3999938964844 1110 Z" fill-rule="evenodd" clip-rule="evenodd" fill="#FFFFFF"/>
	<path d="M 475.79998779296875 1155.699951171875 L 540.5 1157.5999755859375 L 476.6000061035156 1164.300048828125 Z" fill-rule="evenodd" clip-rule="evenodd" fill="#FFFFFF"/>
	<path d="M 441.8999938964844 1184 L 571.4000244140625 1184 L 444 1205.300048828125 Z" fill-rule="evenodd" clip-rule="evenodd" fill="#FFFFFF"/>
	<path d="M 391.1000061035156 1068.300048828125 L 445.70001220703125 1123.9000244140625 L 438.70001220703125 1185.300048828125 L 380 1211.199951171875 L 439.6000061035156 1207.5 L 501.8999938964844 1189.300048828125 L 480 1190.199951171875 L 493.29998779296875 1150.4000244140625 L 450.3999938964844 1155.4000244140625 L 530 1140 L 496.1000061035156 1142.0999755859375 L 470.3999938964844 1095.199951171875 Z" opacity="0.5" fill-rule="evenodd" clip-rule="evenodd" fill="#777776"/>
	<path d="M 428.20001220703125 1090.9000244140625 L 405 1108.4000244140625 L 465.20001220703125 1122.699951171875 L 452.20001220703125 1106 L 503.20001220703125 1095.800048828125 L 449.3999938964844 1101.300048828125 Z" fill-rule="evenodd" clip-rule="evenodd" fill="#333333"/>
	<path d="M 372 1156.9000244140625 L 373.20001220703125 1169 L 391.3999938964844 1182.9000244140625 L 393.29998779296875 1174.5 L 426 1170.800048828125 L 393.29998779296875 1170.800048828125 L 390.5 1158.5 Z" fill-rule="evenodd" clip-rule="evenodd" fill="#333333"/>
	<path d="M 453.79998779296875 1189.300048828125 L 432.1000061035156 1211.199951171875 L 457.79998779296875 1206.300048828125 L 467.29998779296875 1199.4000244140625 L 524.7999877929688 1188.0999755859375 Z" fill-rule="evenodd" clip-rule="evenodd" fill="#333333"/>
</g>
</svg>